<?xml version="1.0" standalone="no"?>
<!DOCTYPE svg PUBLIC "-//W3C//DTD SVG 20010904//EN"
 "http://www.w3.org/TR/2001/REC-SVG-20010904/DTD/svg10.dtd">
<svg version="1.0" xmlns="http://www.w3.org/2000/svg"
 width="1024.000000pt" height="1024.000000pt" viewBox="0 0 1024.000000 1024.000000"
 preserveAspectRatio="xMidYMid meet">

<g transform="translate(0.000000,1024.000000) scale(0.100000,-0.100000)"
fill="#000000" stroke="none">
<path d="M0 5120 l0 -5120 5120 0 5120 0 0 5120 0 5120 -5120 0 -5120 0 0
-5120z m5220 4009 c45 -17 79 -33 77 -35 -2 -2 -35 8 -73 22 -83 31 -123 32
-189 4 -42 -18 -290 -115 -770 -300 -55 -21 -239 -91 -410 -155 -170 -64 -316
-124 -322 -133 -7 -9 -13 -11 -13 -5 0 21 29 41 97 67 151 57 1391 530 1433
547 62 25 76 24 170 -12z m-2937 -113 c213 -63 375 -190 466 -366 35 -66 47
-80 76 -90 46 -15 92 -72 112 -140 19 -64 21 -176 4 -239 -14 -49 -59 -101
-88 -101 -11 1 -6 6 14 15 36 16 50 37 59 92 5 32 3 41 -10 46 -9 4 -16 1 -16
-6 0 -8 -4 -6 -10 3 -7 12 -10 8 -11 -15 0 -16 -5 -39 -10 -50 -7 -14 -8 -5
-5 32 10 106 -32 338 -64 358 -4 3 3 -28 15 -68 48 -150 40 -335 -20 -461 -84
-178 -288 -310 -531 -346 -91 -13 -328 -13 -434 0 -221 28 -388 117 -512 274
-34 42 -49 53 -92 64 -30 7 -61 24 -76 40 l-25 26 25 -21 c14 -12 47 -27 75
-33 27 -6 57 -18 66 -26 35 -31 76 21 98 125 14 66 15 315 2 393 -11 65 -33
113 -57 122 -22 9 -31 1 -44 -40 -10 -30 -9 -38 5 -54 67 -74 67 -418 0 -505
-13 -18 -14 -16 -1 15 24 60 29 97 13 103 -24 9 -67 -5 -67 -22 -1 -9 -6 -26
-13 -38 -10 -18 -11 0 -8 99 3 122 -8 208 -35 274 -14 34 -16 35 -36 22 -27
-18 -56 -97 -59 -163 -2 -48 -2 -49 -6 -10 -3 22 3 68 12 102 20 74 61 117
130 134 36 9 45 16 50 39 11 49 103 176 177 245 93 86 231 155 368 185 135 29
338 23 463 -14z m7162 -58 c49 -39 55 -69 53 -275 l-2 -188 -6 200 c-3 135 -9
207 -18 222 -30 53 -28 53 -609 51 -428 -2 -485 -4 -278 -8 143 -3 250 -7 237
-8 -13 -1 -20 -6 -17 -12 4 -6 -20 -10 -66 -10 -40 0 -70 -2 -68 -5 3 -2 105
-5 227 -5 130 -1 222 -5 222 -11 0 -5 -353 -9 -908 -9 -693 0 -911 -3 -920
-12 -9 -9 -12 -140 -14 -517 -1 -385 -3 -462 -9 -321 -8 236 -6 218 -23 194
-8 -10 -17 -16 -21 -12 -4 4 -10 46 -14 95 -3 52 -8 -97 -11 -362 -5 -440 -5
-435 -8 238 -2 598 0 692 13 717 32 63 -33 59 1141 60 l1071 0 28 -22z m-41
-74 c7 -19 2 -18 -19 6 -16 17 -16 20 -3 15 9 -4 19 -13 22 -21z m13 -157 c-2
-23 -3 -1 -3 48 0 50 1 68 3 42 2 -26 2 -67 0 -90z m-1139 -19 c3 -17 -17 -18
-322 -18 -206 0 -327 4 -331 10 -17 27 15 30 328 28 297 -3 322 -4 325 -20z
m-3217 -49 c-14 -5 -30 -13 -36 -17 -6 -4 -2 1 8 11 11 9 27 17 36 16 10 0 7
-4 -8 -10z m2456 -91 c-3 -7 -5 -2 -5 12 0 14 2 19 5 13 2 -7 2 -19 0 -25z
m409 21 c15 -25 -18 -31 -158 -30 -78 1 -147 6 -152 11 -23 23 11 30 154 30
96 0 151 -4 156 -11z m409 -9 c0 -13 -26 -15 -164 -18 -158 -2 -192 3 -176 27
4 8 59 11 173 9 141 -3 167 -5 167 -18z m423 3 c-3 -16 -21 -18 -172 -21 -96
-1 -174 2 -179 7 -25 25 9 31 179 31 162 0 175 -1 172 -17z m-1263 -3 c3 -5 1
-10 -4 -10 -6 0 -11 5 -11 10 0 6 2 10 4 10 3 0 8 -4 11 -10z m-1835 -115
c162 -52 335 -108 384 -126 92 -33 161 -81 152 -106 -3 -8 -2 -12 3 -9 11 7
21 -18 20 -47 -1 -20 -2 -20 -9 3 -6 20 -8 13 -10 -30 l-2 -55 -8 42 c-5 23
-16 55 -25 72 -8 17 -15 34 -14 37 1 4 -7 17 -19 29 -23 24 -120 61 -332 125
-74 23 -207 64 -295 92 -88 28 -165 51 -172 51 -6 0 -9 7 -6 14 3 9 12 11 22
7 9 -3 149 -48 311 -99z m-192 19 c56 -20 101 -38 99 -40 -2 -2 -64 16 -138
41 -74 25 -118 43 -99 40 19 -3 81 -21 138 -41z m-4095 -96 c4 -32 4 -58 -1
-58 -4 0 -8 12 -9 28 -1 15 -5 52 -7 82 -7 71 8 27 17 -52z m6145 56 c-3 -14
-5 -12 -10 9 -3 19 -2 25 4 19 6 -6 8 -18 6 -28z m1979 4 c-3 -7 -5 -2 -5 12
0 14 2 19 5 13 2 -7 2 -19 0 -25z m-1482 -3 c0 -19 -8 -20 -139 -23 -141 -3
-164 2 -153 33 6 13 26 15 149 13 135 -3 143 -4 143 -23z m-515 5 c0 -5 -4
-10 -10 -10 -5 0 -10 5 -10 10 0 6 5 10 10 10 6 0 10 -4 10 -10z m595 0 c-3
-5 -11 -10 -16 -10 -6 0 -7 5 -4 10 3 6 11 10 16 10 6 0 7 -4 4 -10z m70 -10
c0 -18 -33 -26 -48 -11 -8 8 -4 11 14 12 l24 1 -25 8 c-24 9 -24 9 5 7 19 -1
30 -7 30 -17z m269 11 c14 -22 -25 -32 -110 -29 -75 3 -89 6 -92 21 -3 15 7
17 97 17 55 0 102 -4 105 -9z m-2790 -23 c-5 -7 -2 -9 9 -5 8 3 32 1 53 -5 29
-7 34 -12 23 -19 -19 -10 -61 0 -53 12 3 5 -3 8 -13 7 -10 0 -27 0 -38 1 -17
1 -18 3 -5 11 21 13 33 12 24 -2z m269 -74 c156 -51 206 -73 227 -101 12 -15
12 -16 0 -5 -27 23 -33 12 -9 -15 l24 -28 -27 24 c-15 13 -26 29 -25 35 2 13
-260 107 -286 101 -9 -2 -15 1 -11 6 5 8 -12 13 -43 12 -7 -1 -13 3 -13 8 0
15 14 11 163 -37z m2968 -3 c24 -12 55 -30 68 -41 l23 -20 -33 -44 -34 -44
-28 24 c-57 48 -141 53 -199 13 -58 -41 -73 -158 -31 -231 47 -79 176 -92 232
-24 19 23 24 21 60 -31 l33 -46 -24 -19 c-49 -38 -129 -60 -198 -55 -80 5
-136 32 -184 89 -96 112 -81 320 30 404 75 58 198 69 285 25z m-983 -30 c8
-23 -19 -31 -104 -31 -56 0 -85 4 -93 13 -19 24 6 32 100 32 69 0 93 -3 97
-14z m221 10 c8 -5 11 -16 8 -25 -5 -13 -22 -16 -81 -16 -75 0 -93 8 -82 35 4
11 23 15 73 15 37 0 74 -4 82 -9z m-3959 -41 c8 -5 11 -10 5 -10 -5 0 -17 5
-25 10 -8 5 -10 10 -5 10 6 0 17 -5 25 -10z m-3073 -32 c-3 -8 -6 -5 -6 6 -1
11 2 17 5 13 3 -3 4 -12 1 -19z m3460 -129 c34 -16 64 -29 67 -29 3 0 36 -14
73 -31 37 -17 87 -39 112 -49 158 -63 202 -81 255 -105 32 -14 56 -29 52 -32
-6 -6 -199 74 -531 220 -99 43 -222 95 -272 115 -51 20 -93 40 -93 44 0 7 238
-87 337 -133z m-3460 89 c-3 -8 -6 -5 -6 6 -1 11 2 17 5 13 3 -3 4 -12 1 -19z
m5083 -65 c5 -21 10 -75 11 -120 2 -74 4 -83 20 -83 16 0 19 9 21 53 l2 52 3
-53 c3 -39 10 -58 29 -77 27 -27 32 -79 10 -107 -20 -27 -29 -21 -10 7 18 28
13 70 -11 79 -12 4 -14 0 -10 -17 6 -26 -2 -40 -32 -56 -19 -10 -26 -8 -43 9
-17 17 -20 18 -20 3 0 -9 7 -25 17 -35 10 -12 12 -18 4 -18 -17 0 -43 68 -35
93 3 12 15 32 27 44 18 20 19 32 14 130 -3 59 -8 117 -13 128 -4 11 -4 17 0
13 4 -3 12 -24 16 -45z m1858 25 c3 -17 -10 -18 -162 -18 -132 0 -166 3 -166
13 0 8 3 17 7 21 4 3 77 5 162 4 139 -3 156 -5 159 -20z m352 2 c0 -19 -7 -20
-139 -20 -134 0 -161 6 -146 30 4 6 63 10 146 10 132 0 139 -1 139 -20z
m-7283 -12 c-3 -8 -6 -5 -6 6 -1 11 2 17 5 13 3 -3 4 -12 1 -19z m27 -64 c3
-8 2 -12 -4 -9 -6 3 -10 10 -10 16 0 14 7 11 14 -7z m3035 -225 c-12 -112 -23
-223 -23 -246 -1 -24 -3 -43 -6 -43 -3 0 -7 -26 -8 -58 -2 -51 1 -64 28 -101
55 -76 195 -153 473 -261 75 -29 135 -55 133 -57 -8 -9 -365 139 -445 184
-110 62 -187 133 -201 183 -7 28 -6 69 6 156 8 66 21 171 29 234 21 180 27
221 32 216 2 -2 -6 -95 -18 -207z m3621 177 c0 -29 -16 -36 -86 -36 -67 0 -74
2 -74 20 0 18 7 20 80 20 44 0 80 -2 80 -4z m-280 -16 c0 -5 -2 -10 -4 -10 -3
0 -8 5 -11 10 -3 6 -1 10 4 10 6 0 11 -4 11 -10z m508 -132 c3 -17 -9 -18
-152 -18 -123 0 -156 3 -156 13 0 8 3 17 7 21 4 3 72 5 152 4 130 -3 146 -5
149 -20z m-190 -122 c2 -3 2 -12 -1 -21 -8 -20 -169 -22 -186 -2 -21 26 8 35
96 31 47 -2 88 -6 91 -8z m437 -11 c0 -19 -8 -20 -179 -23 -184 -3 -220 4
-195 35 10 11 48 13 193 11 173 -3 181 -4 181 -23z m-2086 -39 c1 27 8 33 32
27 17 -5 19 -14 18 -87 -2 -192 4 -409 11 -371 4 25 7 -6 7 -85 0 -73 -3 -112
-7 -95 -7 26 -8 24 -9 -17 0 -27 -4 -48 -8 -49 -5 0 -17 -2 -29 -4 -45 -9 -55
13 -55 120 0 120 5 221 20 375 12 125 13 156 7 149 -17 -17 -70 -576 -59 -619
7 -25 53 -40 120 -40 82 0 93 9 93 80 0 114 -30 401 -65 620 -5 31 -4 32 5 11
30 -70 90 -654 71 -690 -23 -42 -143 -51 -211 -16 -28 14 -30 19 -30 73 0 124
37 470 67 622 l6 35 7 -30 c5 -21 8 -24 9 -9z m-4574 -46 c-16 -11 -24 -20
-16 -20 15 0 82 -56 75 -63 -3 -2 7 -3 22 -1 14 1 23 0 20 -3 -6 -6 71 -36
134 -53 55 -15 219 -21 280 -10 92 15 113 21 178 51 34 16 67 29 72 29 10 0
22 8 56 39 14 12 17 12 25 0 6 -9 9 -10 9 -2 0 7 -8 17 -17 22 -33 19 7 11 46
-9 83 -42 127 -127 138 -265 l6 -80 19 40 c37 78 5 225 -50 233 -12 2 -22 8
-22 14 0 15 78 5 125 -17 71 -33 177 -149 223 -245 23 -47 45 -99 48 -116 5
-26 2 -32 -23 -43 -15 -7 -67 -37 -115 -67 l-87 -55 -3 -84 c-2 -51 1 -87 7
-89 6 -2 2 -7 -9 -11 -53 -22 -72 53 -31 129 l26 48 -35 38 c-42 46 -70 89
-64 95 3 3 19 -14 36 -38 61 -82 61 -82 74 -69 9 9 9 15 -1 25 -11 10 -12 9
-6 -2 5 -9 4 -12 -3 -7 -6 4 -9 13 -5 21 3 8 0 15 -7 15 -6 0 -9 4 -5 9 3 6 0
13 -7 18 -21 13 -67 89 -70 117 -7 49 -15 36 -22 -35 -15 -165 -74 -299 -175
-400 -119 -118 -234 -168 -406 -176 -125 -6 -196 8 -305 59 -94 45 -205 158
-258 264 -46 92 -76 194 -62 208 7 7 10 4 10 -8 0 -32 31 -126 40 -121 5 3 12
0 16 -6 4 -8 3 -9 -4 -5 -7 4 -12 2 -12 -3 0 -6 4 -11 10 -11 5 0 6 -7 3 -17
-4 -11 -3 -14 5 -9 18 11 53 -16 46 -36 -4 -13 -1 -16 11 -12 13 5 15 1 11
-21 -3 -15 -3 -25 1 -22 7 8 33 -18 33 -32 0 -6 5 -11 11 -11 7 0 18 -8 26
-17 8 -10 11 -12 7 -4 -5 9 -3 12 5 7 6 -4 9 -12 5 -17 -7 -12 31 -51 40 -41
4 3 17 -6 29 -21 12 -16 29 -29 37 -31 32 -5 60 -18 60 -27 0 -5 8 -9 18 -9
13 0 14 -2 4 -9 -18 -11 29 -24 54 -14 11 4 15 3 11 -4 -10 -17 128 -26 203
-14 36 6 87 18 113 26 50 15 161 78 174 98 3 6 -8 1 -25 -12 -18 -12 -36 -20
-41 -16 -6 3 -13 -1 -18 -9 -11 -19 -32 -22 -67 -7 -16 6 -36 9 -43 7 -8 -3
-12 -2 -9 2 2 4 1 14 -5 22 -7 12 -9 9 -10 -10 0 -14 -3 -19 -6 -12 -2 6 -12
12 -21 12 -15 1 -14 3 2 15 25 19 16 19 -20 0 -22 -11 -31 -12 -43 -2 -8 7
-12 7 -8 1 4 -7 -5 -11 -23 -11 -17 0 -30 4 -30 9 0 4 -13 8 -30 8 -16 0 -30
5 -30 10 0 6 -11 10 -25 10 -14 0 -25 5 -25 11 0 5 -4 7 -10 4 -5 -3 -10 -1
-10 4 0 6 -6 11 -13 11 -7 0 -23 9 -35 20 -23 22 -37 26 -26 8 4 -7 3 -8 -4
-4 -7 4 -12 13 -12 19 0 7 -14 18 -31 26 -20 9 -28 18 -25 28 4 10 2 13 -8 10
-10 -4 -13 -1 -9 9 4 10 -2 14 -21 14 -14 0 -26 4 -26 9 0 5 10 7 23 5 12 -2
-7 5 -42 17 -95 31 -67 34 51 5 140 -34 175 -40 163 -29 -5 5 -39 15 -74 22
-74 14 -224 63 -171 55 l35 -5 -25 15 c-14 9 -22 15 -18 16 3 0 -2 23 -13 50
-10 28 -16 50 -13 50 4 0 2 6 -3 13 -5 6 -10 26 -12 42 -1 17 -7 34 -12 39 -5
6 -9 24 -10 40 0 27 -1 28 -9 10 -11 -27 -67 -74 -88 -74 -9 0 -1 8 18 18 49
24 70 71 70 155 0 37 -6 82 -14 100 -18 42 -61 81 -78 71 -10 -6 -10 -4 1 9
14 18 146 87 165 87 6 0 -2 -9 -19 -20z m730 -66 c-20 -15 -68 -30 -126 -39
-18 -3 -7 3 26 13 33 10 69 23 80 30 29 16 44 14 20 -4z m-880 -55 c16 -27 20
-51 19 -114 -2 -127 -46 -232 -149 -353 l-37 -42 -40 34 c-41 35 -184 100
-199 90 -20 -12 -20 31 0 92 27 81 77 163 144 232 62 64 108 94 156 102 53 9
83 -2 106 -41z m5869 2 c-2 -3 -12 3 -22 13 -16 17 -16 18 5 5 12 -7 20 -15
17 -18z m-5194 -3 c-60 -9 -146 -9 -195 1 -26 4 11 7 100 7 89 -1 123 -3 95
-8z m500 -18 c6 -11 8 -20 6 -20 -3 0 -10 9 -16 20 -6 11 -8 20 -6 20 3 0 10
-9 16 -20z m6878 -152 l-2 -103 -3 96 -4 97 -382 -5 c-210 -3 -386 -6 -392 -8
-5 -2 85 -4 200 -6 138 -1 195 -4 165 -9 -25 -5 -53 -10 -64 -12 -20 -5 -44
-38 -26 -38 5 0 10 -4 10 -9 0 -4 -8 -8 -17 -8 -10 0 -67 -2 -128 -3 -81 -2
-100 -5 -70 -10 22 -4 34 -8 27 -9 -7 0 -25 -12 -40 -26 -15 -14 -31 -25 -37
-25 -5 0 -4 4 3 9 10 6 9 11 -4 22 -12 9 -15 10 -10 2 5 -9 0 -13 -14 -13 -12
0 -19 -4 -15 -9 6 -11 -25 -23 -46 -19 -8 2 -14 -5 -14 -16 0 -11 -6 -21 -14
-24 -8 -3 -11 0 -7 7 10 15 -7 14 -22 -1 -10 -10 -15 -10 -22 2 -7 11 -10 11
-10 2 0 -7 -5 -10 -12 -6 -6 4 -8 3 -5 -2 3 -6 2 -16 -3 -24 -7 -12 -12 -11
-28 4 -18 15 -21 16 -29 2 -5 -9 -28 -16 -63 -19 -30 -2 51 -5 180 -6 145 -2
216 -6 185 -11 -27 -3 -379 -8 -782 -9 l-732 -3 -38 35 -38 35 -3 111 -4 111
1156 0 1156 0 -2 -102z m-468 30 c0 -4 -7 -8 -15 -8 -8 0 -15 4 -15 8 0 5 7 9
15 9 8 0 15 -4 15 -9z m-4445 -152 c66 -25 115 -45 110 -46 -42 -1 -305 97
-305 114 0 6 15 0 195 -68z m4895 -6 c-6 -11 -20 -25 -32 -31 -18 -9 -16 -5 7
19 35 37 39 39 25 12z m-613 -46 c-3 -3 -12 -4 -19 -1 -8 3 -5 6 6 6 11 1 17
-2 13 -5z m-5846 -148 c69 -153 -66 -354 -174 -258 -35 30 -77 146 -47 127 6
-3 10 -16 10 -28 0 -34 37 -87 72 -101 40 -17 80 -5 104 32 13 20 14 24 2 15
-8 -7 -19 -9 -23 -5 -5 4 -5 2 -2 -4 4 -7 0 -15 -9 -18 -12 -5 -15 -2 -10 10
5 14 4 15 -9 4 -11 -9 -15 -9 -15 -1 0 7 -4 9 -10 6 -12 -8 -70 51 -70 71 0 9
-7 22 -15 30 -20 21 -19 41 3 47 9 3 3 5 -15 6 -44 1 -49 15 -6 19 77 5 152
69 137 116 -12 37 57 -24 77 -68z m-1975 45 c-10 -15 31 -42 90 -61 l58 -18
-2 -43 c-6 -101 -27 -150 -75 -179 -81 -50 -159 -4 -181 105 -8 39 17 140 40
167 25 26 84 52 70 29z m3774 -22 c19 -6 78 -19 130 -29 52 -10 85 -19 73 -19
-43 -2 -284 54 -248 58 6 1 26 -4 45 -10z m-3490 -186 c0 -35 -16 -53 -47 -53
-24 0 -63 32 -63 51 0 6 9 1 19 -12 11 -13 23 -21 27 -17 4 4 2 14 -4 21 -15
18 -42 93 -48 132 -5 29 -2 27 56 -32 45 -46 60 -68 60 -90z m6677 115 c-3 -8
-6 -5 -6 6 -1 11 2 17 5 13 3 -3 4 -12 1 -19z m-17 -73 c-7 -25 -17 -48 -23
-52 -6 -4 -8 0 -4 9 3 9 11 34 18 57 17 56 25 43 9 -14z m-2751 -34 c324 -199
620 -309 1031 -386 115 -21 124 -24 65 -20 -106 6 -42 -9 152 -35 95 -13 167
-27 161 -31 -7 -5 -31 -6 -53 -4 -322 36 -512 70 -704 125 -58 16 -106 28
-108 26 -4 -3 108 -41 152 -52 6 -2 24 -7 40 -13 24 -7 26 -9 8 -10 -17 -1
-21 -7 -19 -29 2 -28 1 -28 -26 -14 -35 17 -58 3 -58 -35 0 -15 -4 -22 -11
-17 -6 3 -9 15 -6 25 3 11 1 17 -4 13 -5 -3 -9 -12 -9 -21 0 -15 -18 -15 -100
4 -47 11 -15 -5 74 -36 87 -31 251 -75 317 -86 19 -3 50 -10 69 -15 78 -21
-108 2 -220 26 -301 67 -619 190 -801 310 -36 24 -72 44 -80 44 -8 0 -41 -19
-74 -41 -85 -58 -338 -180 -485 -235 -198 -74 -412 -124 -681 -159 -84 -11
-118 -20 -128 -33 -18 -24 -6 -367 30 -792 34 -415 129 -781 280 -1085 28 -55
44 -93 36 -85 -22 22 -99 178 -152 310 -48 117 -65 148 -65 117 0 -11 -8 -17
-21 -17 -15 0 -19 -5 -15 -15 4 -10 -6 -20 -31 -30 -46 -19 -50 -19 -58 6 -4
11 -9 18 -12 16 -10 -11 62 -198 128 -332 77 -156 156 -283 246 -395 84 -104
269 -284 383 -372 117 -91 225 -168 236 -168 8 0 -44 49 -88 83 l-23 18 24
-12 c21 -10 23 -9 17 7 -4 14 0 12 14 -6 11 -14 18 -18 14 -9 -3 10 -1 20 5
24 6 3 11 0 11 -7 0 -8 5 -6 11 5 5 9 7 22 3 29 -5 7 -3 8 5 4 7 -5 10 -15 6
-23 -4 -13 -3 -14 10 -3 8 7 15 9 15 4 0 -4 6 1 14 12 13 17 18 17 36 6 12 -7
24 -11 26 -9 3 3 -41 40 -98 84 -101 78 -171 144 -101 95 17 -12 33 -22 36
-22 3 0 43 -23 88 -51 46 -29 126 -77 179 -107 52 -30 98 -56 103 -59 4 -2 7
-2 7 1 0 4 -84 57 -145 90 -35 19 -115 77 -115 83 0 3 12 -3 28 -13 87 -57
213 -134 250 -153 24 -12 42 -25 39 -28 -3 -2 -15 0 -26 7 -35 18 -23 3 15
-19 l36 -21 31 22 c18 12 34 25 37 28 3 3 11 6 19 8 7 1 29 14 47 29 19 14 34
22 34 17 0 -4 6 0 13 9 6 10 22 19 35 22 33 6 173 106 165 118 -3 5 -1 7 5 3
27 -16 325 264 461 434 191 239 255 352 362 650 46 126 51 117 9 -15 -87 -269
-196 -469 -377 -687 -214 -259 -482 -474 -820 -659 -28 -15 -28 -17 -31 -111
-2 -55 1 -99 7 -102 11 -7 160 66 271 132 97 58 99 59 70 31 -13 -13 -28 -23
-32 -22 -5 2 -8 -1 -8 -5 0 -10 -144 -99 -203 -126 -21 -10 -36 -20 -34 -23 6
-5 167 77 237 122 201 126 345 234 494 371 238 218 394 419 531 689 154 303
254 767 295 1370 12 188 13 706 1 738 -9 22 -39 40 -86 50 -11 3 1 5 26 6 88
2 84 22 83 -391 -1 -376 -11 -534 -55 -843 -72 -505 -152 -769 -319 -1062
-232 -404 -675 -811 -1149 -1056 -91 -47 -120 -58 -144 -53 -17 3 -84 36 -151
73 -457 253 -850 609 -1064 964 -229 382 -335 768 -392 1434 -14 166 -34 816
-26 858 11 61 29 69 198 83 331 28 600 89 875 200 147 59 380 176 485 243 36
23 75 41 92 41 18 0 65 -22 125 -59z m3659 -46 c6 -3 12 -10 12 -17 0 -9 -3
-9 -12 0 -9 9 -65 12 -198 11 -108 -1 -175 -4 -160 -9 14 -4 -149 -8 -362 -9
-289 -1 -388 -4 -388 -13 0 -6 -2 -9 -5 -6 -3 3 -1 17 4 31 l10 26 543 -5
c299 -3 549 -7 556 -9z m-1037 -73 c-35 -2 -68 1 -72 5 -4 4 24 6 64 3 l72 -5
-64 -3z m-6111 -24 c0 -5 -9 -4 -20 2 -11 6 -20 12 -20 14 0 2 9 2 20 -1 11
-3 20 -9 20 -15z m390 -4 c0 -8 -19 -13 -24 -6 -3 5 1 9 9 9 8 0 15 -2 15 -3z
m3867 -270 c-3 -3 -12 -4 -19 -1 -8 3 -5 6 6 6 11 1 17 -2 13 -5z m466 -1 c-7
-2 -21 -2 -30 0 -10 3 -4 5 12 5 17 0 24 -2 18 -5z m-1703 -38 c-25 -13 -49
-24 -55 -24 -5 0 10 11 35 24 25 13 50 24 55 24 6 0 -10 -11 -35 -24z m1141
-16 c-5 -13 -10 -19 -10 -12 -1 15 10 45 15 40 3 -2 0 -15 -5 -28z m-1256 -33
c-53 -25 -103 -42 -95 -33 7 8 123 55 135 55 6 0 -12 -10 -40 -22z m2062 -53
c-3 -10 -5 -2 -5 17 0 19 2 27 5 18 2 -10 2 -26 0 -35z m1961 -25 c162 -29
289 -54 284 -56 -10 -3 -362 56 -502 84 -72 15 -78 14 -152 -7 -43 -12 -75
-26 -72 -30 3 -5 -2 -6 -10 -3 -8 3 -90 -16 -181 -42 -112 -32 -161 -50 -149
-55 11 -3 24 -3 30 2 6 5 20 7 30 3 14 -4 15 -3 6 4 -17 12 34 23 69 16 20 -5
21 -4 9 6 -12 10 -11 11 8 7 12 -3 20 -1 17 3 -3 4 5 6 17 2 14 -3 19 -1 14 6
-5 8 3 10 26 6 22 -4 29 -3 20 4 -11 7 -9 10 7 15 12 3 18 1 15 -4 -7 -11 16
-6 130 27 44 13 91 24 105 24 14 -1 -21 -14 -79 -30 -58 -15 -239 -67 -403
-114 -164 -47 -313 -86 -330 -86 -73 -1 -155 -64 -172 -133 -4 -16 -11 -63
-15 -105 l-7 -77 -2 63 c0 34 -5 62 -11 62 -5 0 -10 -4 -10 -10 0 -17 -18 -11
-23 8 -3 9 -5 -26 -4 -80 1 -53 -1 -94 -4 -92 -3 2 -9 50 -13 106 -5 79 -3
115 9 153 29 97 10 89 513 229 248 70 462 131 475 136 36 14 49 13 355 -42z
m-1961 -45 c-3 -10 -5 -2 -5 17 0 19 2 27 5 18 2 -10 2 -26 0 -35z m1718 31
c-21 -9 -323 -95 -367 -106 -27 -6 -48 -15 -48 -20 0 -5 4 -7 9 -4 5 3 26 8
47 12 22 3 47 10 56 15 22 12 68 12 68 -1 0 -5 -7 -7 -15 -4 -8 4 -15 1 -15
-5 0 -6 8 -11 18 -11 15 -1 15 -2 -2 -15 -17 -13 -18 -17 -6 -28 7 -6 10 -7 7
-1 -8 14 37 39 52 30 18 -11 12 -25 -8 -19 -10 3 -22 0 -26 -7 -4 -7 -1 -11 6
-9 27 3 40 -1 34 -11 -4 -6 -11 -7 -17 -4 -7 4 -8 -2 -2 -17 4 -13 7 -29 7
-36 0 -6 7 -9 15 -6 11 5 11 7 0 15 -9 7 -7 8 10 5 12 -3 22 -1 22 4 0 5 -6 9
-14 9 -8 0 -18 5 -22 12 -5 8 0 9 14 6 12 -4 22 -2 22 3 0 5 -4 9 -10 9 -5 0
-10 7 -10 16 0 14 2 14 15 0 8 -8 15 -21 15 -29 0 -9 10 -14 25 -14 25 0 25 0
9 18 -23 25 -9 24 18 -1 12 -11 16 -20 10 -20 -7 0 -12 -5 -12 -10 0 -6 15 -8
35 -6 19 3 37 1 40 -4 3 -5 -6 -7 -20 -4 -15 2 -25 0 -25 -7 0 -6 -7 -9 -15
-5 -8 3 -15 1 -15 -4 0 -11 -32 -1 -42 14 -5 7 -8 7 -8 -2 0 -7 7 -15 15 -18
8 -4 13 -9 10 -13 -2 -4 2 -8 10 -8 8 0 15 3 15 7 0 3 9 6 20 6 13 0 19 -5 16
-13 -3 -7 -1 -23 4 -35 8 -21 15 -10 11 16 -2 11 19 36 30 36 17 0 9 -20 -8
-21 -10 0 -13 -3 -6 -5 7 -3 9 -13 5 -22 -5 -15 -4 -15 12 1 9 9 23 17 29 16
9 0 8 -2 0 -6 -7 -2 -13 -9 -13 -15 0 -6 6 -8 13 -5 19 7 57 -11 57 -28 0 -8
5 -15 10 -15 6 0 10 -4 10 -10 0 -5 -8 -7 -17 -5 -10 3 -4 -1 12 -9 17 -8 40
-15 53 -16 13 0 20 -4 17 -10 -3 -5 99 26 227 71 342 118 581 199 587 199 24
-2 -200 -83 -689 -251 -170 -59 -192 -76 -210 -166 -12 -54 -9 -210 4 -273 3
-14 -1 -5 -10 20 -10 29 -16 87 -17 162 -1 65 -4 118 -6 118 -2 0 -69 14 -149
30 -80 17 -147 29 -149 26 -5 -4 88 -26 112 -26 8 0 15 -4 15 -9 0 -5 9 -7 19
-4 11 3 28 0 38 -6 13 -7 4 -9 -37 -4 -30 3 -65 5 -77 5 -13 0 -21 4 -18 8 3
5 -11 6 -31 3 -22 -4 -35 -2 -31 3 6 10 2 11 -63 17 -19 2 -44 8 -55 14 -11 5
-37 9 -57 8 -20 -1 -35 2 -32 6 8 13 -60 28 -68 15 -5 -7 -8 -7 -8 -1 0 10
-65 31 -120 40 -14 2 -40 8 -59 14 -19 6 -37 8 -42 6 -4 -3 -10 -1 -14 5 -4 6
-10 8 -15 5 -5 -3 -11 -1 -15 5 -4 6 5 10 21 10 35 0 29 5 -16 14 -19 3 -30 2
-23 -2 7 -4 9 -13 4 -21 -6 -9 -11 -10 -15 -2 -4 6 -20 11 -37 11 -16 0 -29 4
-29 8 0 4 -20 9 -45 10 -40 1 -45 -1 -45 -20 0 -12 -3 -19 -6 -15 -13 13 8 79
37 112 24 26 42 36 87 45 122 25 237 54 487 125 313 89 366 103 385 103 8 0
11 -1 5 -4z m-2125 -30 c0 -2 -13 -4 -30 -4 -16 0 -30 4 -30 8 0 5 14 7 30 4
17 -2 30 -6 30 -8z m-2023 0 c-3 -3 -12 -4 -19 -1 -8 3 -5 6 6 6 11 1 17 -2
13 -5z m-57 -14 c-34 -11 -60 -11 -35 0 11 5 29 8 40 8 16 0 15 -2 -5 -8z
m4090 -15 c-7 -8 -17 -15 -23 -15 -6 0 -2 7 9 15 25 19 30 19 14 0z m725 5
c27 -7 27 -8 5 -8 -14 0 -36 4 -50 8 -20 6 -21 8 -5 8 11 0 34 -4 50 -8z
m-4888 -6 c-3 -3 -12 -4 -19 -1 -8 3 -5 6 6 6 11 1 17 -2 13 -5z m2560 -26
c-3 -8 -6 -5 -6 6 -1 11 2 17 5 13 3 -3 4 -12 1 -19z m1540 7 c0 -8 -4 -12 -9
-9 -4 3 -8 9 -8 15 0 5 4 9 8 9 5 0 9 -7 9 -15z m856 8 c-7 -2 -19 -2 -25 0
-7 3 -2 5 12 5 14 0 19 -2 13 -5z m-5066 -9 c-3 -3 -12 -4 -19 -1 -8 3 -5 6 6
6 11 1 17 -2 13 -5z m2472 -182 c-1 -194 -9 -284 -23 -243 -4 13 -4 107 0 210
5 102 9 194 8 203 0 9 3 15 8 12 4 -3 8 -85 7 -182z m2648 182 c-3 -3 -12 -4
-19 -1 -8 3 -5 6 6 6 11 1 17 -2 13 -5z m-5190 -10 c-3 -3 -12 -4 -19 -1 -8 3
-5 6 6 6 11 1 17 -2 13 -5z m5246 -1 c-7 -2 -19 -2 -25 0 -7 3 -2 5 12 5 14 0
19 -2 13 -5z m-5306 -9 c-3 -3 -12 -4 -19 -1 -8 3 -5 6 6 6 11 1 17 -2 13 -5z
m5420 -10 c-3 -3 -12 -4 -19 -1 -8 3 -5 6 6 6 11 1 17 -2 13 -5z m50 -10 c-3
-3 -12 -4 -19 -1 -8 3 -5 6 6 6 11 1 17 -2 13 -5z m63 -8 c0 -2 -7 -7 -16 -10
-8 -3 -12 -2 -9 4 6 10 25 14 25 6z m-2727 -21 c-3 -9 -8 -14 -10 -11 -3 3 -2
9 2 15 9 16 15 13 8 -4z m-2346 -1 c-3 -3 -12 -4 -19 -1 -8 3 -5 6 6 6 11 1
17 -2 13 -5z m-87 -20 c0 -2 -9 -4 -21 -4 -11 0 -18 4 -14 10 5 8 35 3 35 -6z
m-56 -6 c-5 -7 -9 -21 -9 -31 -2 -23 -22 -44 -22 -22 0 8 4 15 9 15 4 0 8 5 8
10 0 21 -20 9 -26 -16 -5 -18 -9 -22 -14 -13 -5 7 -6 19 -3 28 2 9 -3 4 -12
-11 -17 -30 -27 -36 -22 -15 1 7 -7 11 -20 9 -13 -2 -23 2 -23 8 0 7 6 10 13
7 6 -2 25 2 40 10 15 8 32 11 37 8 6 -3 10 -1 10 5 0 6 4 9 9 5 5 -3 12 -1 16
5 3 5 8 10 11 10 3 0 2 -6 -2 -12z m99 5 c-7 -2 -19 -2 -25 0 -7 3 -2 5 12 5
14 0 19 -2 13 -5z m-2885 -18 c15 -5 17 -157 2 -186 -16 -29 -26 -24 -50 25
-11 24 -27 50 -35 56 -10 8 -54 11 -139 8 -167 -4 -173 -10 -104 -98 135 -172
138 -209 31 -346 -49 -62 -93 -126 -93 -136 0 -5 67 -8 149 -8 l149 0 32 41
c23 28 39 39 54 37 19 -3 21 -9 18 -53 -2 -53 -18 -112 -35 -132 -7 -10 -69
-13 -251 -12 -132 1 -252 4 -266 8 -14 4 -26 15 -28 27 -3 20 94 161 190 277
75 91 75 91 34 150 -20 29 -79 108 -131 177 -98 129 -111 159 -67 170 27 6
521 2 540 -5z m2808 -31 c-4 -9 -9 -15 -11 -12 -3 3 -3 13 1 22 4 9 9 15 11
12 3 -3 3 -13 -1 -22z m-161 -24 c-11 -17 -23 -1 -18 21 5 19 7 19 15 5 5 -9
6 -21 3 -26z m5302 -22 c-3 -7 -5 -2 -5 12 0 14 2 19 5 13 2 -7 2 -19 0 -25z
m-907 18 c0 -3 -4 -8 -10 -11 -5 -3 -10 -1 -10 4 0 6 5 11 10 11 6 0 10 -2 10
-4z m-4402 -41 c-3 -3 -9 2 -12 12 -6 14 -5 15 5 6 7 -7 10 -15 7 -18z m5304
-152 c3 -93 1 -113 -12 -116 -8 -3 -190 -73 -404 -156 -214 -83 -391 -150
-392 -148 -5 4 -24 105 -24 122 0 6 15 16 33 22 17 6 95 34 172 63 140 52 587
210 593 210 13 0 -17 -24 -51 -41 -62 -32 -219 -89 -229 -83 -4 3 -8 1 -8 -5
0 -6 -7 -7 -17 -4 -11 4 -14 3 -9 -5 5 -8 2 -10 -9 -6 -8 4 -26 -1 -39 -9 -27
-18 -335 -142 -379 -152 -15 -4 -30 -12 -34 -18 -9 -15 -18 -18 292 98 55 20
129 47 165 60 36 12 81 28 100 36 19 7 70 25 112 41 85 31 103 34 114 16 4 -6
3 -8 -3 -5 -10 6 -112 -30 -123 -43 -3 -4 -62 -27 -131 -53 -175 -64 -239 -91
-239 -100 0 -4 8 -4 18 2 30 16 171 61 191 61 11 0 21 5 23 11 2 5 12 12 23
14 11 2 22 4 25 6 3 1 10 3 15 3 6 1 35 11 65 23 30 11 76 28 103 38 l47 17 1
131 c2 149 7 136 11 -30z m-7018 131 c21 -8 20 -31 -1 -43 -10 -5 -53 -15 -95
-22 l-78 -13 0 -40 c0 -23 -20 -156 -44 -296 -24 -140 -42 -258 -39 -262 2 -4
20 -1 40 7 71 30 97 14 64 -39 -38 -60 -101 -83 -153 -55 -56 30 -60 117 -18
400 17 112 30 220 28 239 -3 33 -5 35 -73 56 -69 22 -82 32 -71 59 4 13 40 15
215 15 115 0 216 -3 225 -6z m3916 -30 c149 -81 272 -261 287 -418 3 -39 1
-71 -6 -84 -6 -12 -91 -75 -189 -141 -97 -66 -296 -209 -442 -319 -146 -110
-267 -197 -270 -195 -3 2 6 13 20 23 14 10 25 22 25 27 1 4 9 24 20 43 10 19
18 41 16 49 -1 7 2 10 8 6 6 -3 11 0 11 7 0 7 15 20 33 28 20 9 31 22 31 33
-2 14 1 15 13 5 10 -8 17 -8 21 -1 4 5 21 15 37 20 17 6 29 17 29 26 -1 10 5
14 17 12 12 -2 19 2 19 11 0 8 8 14 18 14 27 0 68 40 51 51 -7 4 -17 5 -21 3
-4 -3 -8 0 -8 6 0 7 7 9 16 6 18 -7 84 13 84 25 0 4 10 11 22 15 24 7 79 43
89 58 4 5 13 5 20 1 8 -6 11 -4 7 7 -5 12 24 41 42 43 3 0 19 9 35 21 17 11
47 28 68 38 20 9 35 21 32 26 -3 6 1 7 9 4 9 -4 18 1 22 10 3 9 14 16 24 16
11 0 21 4 25 10 3 5 12 7 19 4 16 -6 36 44 35 85 -1 34 -27 104 -28 75 -2 -39
-25 -75 -54 -81 -19 -4 -26 -10 -23 -20 3 -8 1 -11 -4 -8 -5 3 -21 -6 -35 -21
-14 -15 -25 -22 -25 -15 0 6 -4 11 -10 11 -5 0 -10 -7 -10 -16 0 -8 -5 -12
-11 -9 -5 4 -21 -5 -35 -20 -13 -14 -24 -21 -24 -15 0 6 -5 8 -11 5 -6 -4 -8
-13 -5 -21 3 -8 2 -13 -2 -13 -13 2 -52 -13 -52 -20 0 -4 -16 -13 -36 -20 -27
-10 -33 -16 -23 -22 11 -6 9 -9 -8 -9 -12 0 -28 -7 -37 -15 -8 -8 -19 -15 -25
-15 -6 0 -11 -5 -11 -11 0 -5 -5 -7 -12 -3 -7 4 -8 3 -4 -5 5 -7 -3 -23 -20
-39 l-27 -27 13 25 c13 25 13 25 -8 7 -12 -11 -18 -26 -15 -35 4 -13 2 -13 -9
2 -14 17 -15 17 -21 2 -5 -11 -3 -15 5 -10 7 5 8 3 4 -5 -5 -7 -15 -10 -23 -7
-9 4 -17 -1 -20 -14 -3 -11 -10 -20 -15 -20 -5 0 -31 -22 -57 -50 -26 -27 -53
-50 -59 -50 -7 0 -12 -7 -12 -15 0 -8 -6 -15 -14 -15 -8 0 -17 -8 -20 -17 -5
-13 -9 -14 -15 -5 -6 9 -13 7 -31 -8 -13 -11 -26 -17 -29 -13 -8 10 -51 12
-51 3 0 -4 7 -24 15 -43 8 -20 15 -44 14 -54 0 -10 -6 0 -13 22 -16 52 -84
158 -95 150 -6 -3 -13 0 -17 6 -4 8 -3 9 4 5 23 -14 11 11 -18 39 -16 16 -30
25 -30 21 0 -4 -26 15 -57 43 -32 28 -70 57 -85 64 -15 6 -28 15 -28 19 0 5
-17 8 -37 9 -30 0 -34 2 -18 9 43 18 313 259 551 491 99 98 202 191 230 209
45 29 54 31 110 27 42 -3 78 -13 114 -33z m2245 -4 c3 -5 1 -10 -4 -10 -6 0
-11 5 -11 10 0 6 2 10 4 10 3 0 8 -4 11 -10z m795 -10 c0 -5 -5 -10 -11 -10
-5 0 -7 5 -4 10 3 6 8 10 11 10 2 0 4 -4 4 -10z m-43 -16 c-3 -3 -12 -4 -19
-1 -8 3 -5 6 6 6 11 1 17 -2 13 -5z m-37 -8 c0 -2 -28 -13 -62 -24 -35 -12
-72 -24 -83 -28 -11 -4 -17 -4 -14 0 7 7 137 55 152 56 4 0 7 -2 7 -4z m20
-20 c0 -2 -13 -9 -30 -15 -35 -12 -41 -5 -7 9 25 10 37 12 37 6z m35 -21 c-25
-11 -26 -13 -10 -16 19 -4 -20 -19 -240 -94 -44 -15 -131 -48 -193 -72 -62
-25 -125 -48 -140 -53 -15 -5 -57 -20 -94 -34 l-68 -24 0 50 c0 49 1 50 25 44
16 -4 24 -2 23 5 -2 6 3 14 11 17 8 2 11 0 7 -6 -7 -11 5 -10 43 2 16 6 20 11
12 16 -7 4 33 22 96 44 59 20 143 50 186 67 77 28 116 38 89 20 -8 -4 -13 -11
-13 -15 1 -3 -2 -6 -6 -6 -5 -1 -17 -7 -28 -13 -54 -34 -415 -159 -416 -144 0
12 -17 -20 -18 -35 -1 -5 23 2 52 13 125 50 257 97 322 114 39 10 84 25 100
33 38 19 267 101 280 101 6 0 -3 -6 -20 -14z m-1761 -17 c13 -22 1 -35 -19
-18 -25 21 -45 4 -45 -39 0 -43 23 -76 47 -67 22 9 36 -3 22 -20 -49 -59 -129
74 -85 141 20 30 62 31 80 3z m1651 13 c-18 -15 -138 -51 -126 -37 6 7 8 15 5
19 -3 3 3 3 13 1 11 -3 35 1 54 9 39 17 68 22 54 8z m-1562 -23 c61 -32 72
-130 20 -165 -19 -13 -24 -12 -53 14 -26 23 -32 36 -33 75 -1 33 3 52 17 67
22 25 21 24 49 9z m117 -73 l17 -50 13 43 c7 23 19 42 27 42 10 0 13 -21 13
-91 0 -57 -4 -88 -10 -84 -5 3 -10 30 -11 58 l-1 52 -14 -33 c-17 -38 -28 -35
-39 10 -8 31 -9 30 -14 -22 -8 -73 -20 -51 -28 51 -6 75 -5 81 12 78 12 -3 24
-22 35 -54z m172 -2 c27 -24 33 -71 12 -94 -10 -11 -26 -18 -36 -16 -14 4 -18
-1 -18 -19 0 -15 -6 -24 -15 -24 -12 0 -15 17 -15 90 l0 90 28 -6 c15 -4 35
-13 44 -21z m68 -66 c0 -65 17 -106 38 -93 7 4 12 34 12 72 0 50 3 64 15 64
22 0 22 -142 -1 -160 -25 -22 -67 -1 -81 40 -18 53 -17 140 2 140 12 0 15 -14
15 -63z m590 18 c0 -14 -4 -25 -9 -25 -4 0 -6 11 -3 25 2 14 6 25 8 25 2 0 4
-11 4 -25z m-437 9 c27 -5 37 -12 37 -25 0 -12 -5 -16 -15 -13 -13 5 -15 -6
-15 -70 0 -63 -2 -74 -15 -70 -11 5 -15 24 -15 80 0 67 -2 74 -20 74 -11 0
-20 7 -20 15 0 17 8 18 63 9z m140 -36 c30 -16 20 -31 -18 -25 -30 5 -35 3
-35 -14 0 -14 9 -21 30 -25 17 -4 30 -13 30 -21 0 -12 -7 -14 -30 -9 -27 5
-30 3 -30 -18 0 -19 7 -25 35 -30 21 -4 35 -13 35 -21 0 -18 -4 -18 -51 -5
-42 12 -49 31 -49 131 l0 59 33 -7 c17 -3 40 -10 50 -15z m-936 -10 c-3 -8 -6
-5 -6 6 -1 11 2 17 5 13 3 -3 4 -12 1 -19z m1055 -25 c20 -18 24 -73 6 -91 -9
-9 -9 -18 0 -37 15 -32 15 -45 1 -45 -6 0 -18 18 -26 40 -19 47 -33 52 -33 10
0 -20 -5 -30 -15 -30 -12 0 -15 17 -15 91 l0 92 32 -7 c17 -3 40 -14 50 -23z
m-5786 -27 c9 -37 -12 -68 -44 -64 -33 4 -40 30 -18 63 21 32 54 33 62 1z
m4839 -86 c-3 -5 13 -14 35 -20 l41 -11 -26 -30 c-33 -40 -39 -66 -32 -157 3
-46 2 -65 -3 -47 -4 17 -9 48 -10 70 -1 22 -4 34 -7 27 -2 -6 -9 -10 -14 -6
-5 3 -10 -1 -10 -8 -1 -7 -5 1 -10 17 -5 19 -7 -10 -4 -79 3 -60 3 -107 1
-105 -3 3 -10 56 -16 118 -13 129 -3 201 33 226 25 17 31 19 22 5z m1565 0
c-8 -5 -19 -10 -25 -10 -5 0 -3 5 5 10 8 5 20 10 25 10 6 0 3 -5 -5 -10z
m-7300 -10 c0 -5 -4 -10 -10 -10 -5 0 -10 5 -10 10 0 6 5 10 10 10 6 0 10 -4
10 -10z m7220 -20 c-8 -5 -19 -10 -25 -10 -5 0 -3 5 5 10 8 5 20 10 25 10 6 0
3 -5 -5 -10z m400 0 c-8 -5 -19 -10 -25 -10 -5 0 -3 5 5 10 8 5 20 10 25 10 6
0 3 -5 -5 -10z m-6771 -10 c21 -11 18 -44 -21 -203 -18 -78 -19 -90 -6 -103
13 -13 19 -13 51 6 44 26 45 22 12 -30 -57 -90 -135 -76 -135 25 0 35 21 177
35 243 5 21 3 22 -64 22 -68 0 -101 15 -86 40 8 13 190 13 214 0z m6946 -317
c0 -2 -300 -142 -564 -264 -118 -54 -216 -97 -219 -95 -8 9 -22 82 -22 121 0
40 0 40 63 64 92 36 209 92 204 98 -3 2 -29 -7 -59 -20 -29 -14 -75 -32 -102
-41 -27 -9 -56 -21 -66 -26 -13 -7 -20 -6 -23 3 -3 7 -6 5 -6 -5 -1 -10 -5
-18 -11 -18 -12 0 -12 84 0 120 7 20 9 15 7 -22 0 -26 1 -49 3 -50 3 -1 154
57 337 130 182 73 342 133 355 134 13 2 26 7 30 13 4 5 10 6 15 2 8 -9 -17
-28 -28 -21 -4 2 -9 0 -11 -4 -1 -5 -59 -32 -128 -61 -69 -29 -146 -62 -172
-73 -27 -11 -48 -25 -48 -30 0 -6 -6 -8 -13 -5 -8 3 -14 -1 -14 -8 0 -11 7
-11 31 2 79 41 364 156 389 157 25 1 40 19 36 42 -1 5 0 50 2 99 2 71 4 55 8
-75 4 -91 6 -166 6 -167z m-1949 305 c4 -6 3 -8 -3 -5 -6 4 -17 -1 -24 -10
-12 -14 -12 -16 1 -11 8 2 21 -2 29 -9 10 -11 16 -11 21 -3 5 8 9 6 14 -5 5
-13 13 -16 34 -11 21 5 24 4 12 -5 -12 -9 -11 -10 8 -6 12 3 22 1 22 -5 0 -6
7 -8 15 -4 8 3 15 1 15 -4 0 -5 7 -6 17 -3 9 4 14 2 10 -3 -3 -6 9 -9 29 -9
19 1 34 -2 34 -7 0 -5 12 -7 28 -6 15 1 43 -3 62 -9 63 -20 92 -24 85 -13 -8
12 13 12 40 -1 18 -8 18 -9 -4 -5 -38 8 -11 -9 37 -23 24 -7 52 -9 64 -5 13 4
18 2 14 -4 -7 -11 16 -23 42 -21 10 1 7 4 -8 9 l-25 8 28 1 c15 1 27 -3 27 -9
0 -6 3 -9 8 -8 4 1 27 -1 52 -5 28 -5 40 -11 32 -16 -8 -5 16 -16 65 -31 53
-16 78 -19 81 -11 2 6 8 11 14 11 6 0 8 -7 4 -15 -3 -8 -1 -15 3 -15 5 0 11 4
13 10 2 7 32 6 86 -2 67 -10 82 -15 77 -28 -3 -8 10 1 28 22 28 31 64 49 267
128 271 106 271 106 250 91 -8 -6 -117 -52 -243 -102 -177 -71 -231 -97 -246
-118 -34 -47 -44 -114 -39 -239 6 -138 -7 -95 -17 56 -4 57 -11 99 -15 92 -6
-9 -12 -9 -30 0 -12 6 -31 10 -41 7 -10 -3 -17 -1 -14 3 3 4 -9 13 -25 19 -18
6 -28 6 -25 1 4 -6 -3 -10 -15 -10 -12 0 -19 4 -16 8 2 4 -11 7 -29 7 -19 -1
-32 3 -28 8 3 5 -3 8 -13 6 -11 -1 -32 3 -49 10 -16 7 -45 11 -62 9 -21 -3
-33 0 -33 8 0 13 -57 27 -73 17 -6 -3 -7 -1 -3 5 4 7 2 12 -3 12 -6 0 -11 -5
-11 -11 0 -8 -4 -8 -14 1 -27 21 -183 59 -195 47 -8 -8 -11 -6 -11 7 0 9 -4
15 -8 12 -4 -2 -14 -1 -22 4 -9 5 -19 5 -27 -2 -10 -8 -12 -7 -7 6 4 11 2 15
-8 11 -8 -3 -30 1 -50 9 -19 8 -38 12 -42 9 -3 -4 -6 -2 -6 4 0 10 -46 28 -62
25 -5 -1 -8 2 -8 6 0 4 -10 8 -21 9 -21 2 -21 1 -3 -12 17 -13 15 -13 -16 -2
-19 7 -37 15 -40 18 -11 12 -103 42 -96 31 2 -4 0 -16 -5 -27 -6 -16 -8 -12
-8 17 -1 25 7 46 25 67 28 33 39 38 50 19z m1689 -13 c-27 -13 -54 -24 -60
-24 -5 1 13 11 40 24 28 13 55 24 60 24 6 -1 -12 -11 -40 -24z m-385 11 c0 -6
-212 -87 -216 -83 -4 4 190 83 209 86 4 1 7 -1 7 -3z m-2360 -30 c0 -2 -8 -10
-17 -17 -16 -13 -17 -12 -4 4 13 16 21 21 21 13z m1320 -45 c18 -5 21 -8 10
-12 -8 -3 -26 0 -40 8 -26 13 -12 16 30 4z m800 -21 c-8 -5 -19 -10 -25 -10
-5 0 -3 5 5 10 8 5 20 10 25 10 6 0 3 -5 -5 -10z m-671 -16 c10 -9 -35 -3 -49
6 -11 8 -7 9 15 4 17 -4 32 -8 34 -10z m1461 -8 c0 -8 -163 -67 -174 -63 -6 2
10 11 34 20 25 9 63 23 85 31 42 16 55 19 55 12z m-7661 -22 c31 -22 61 -90
61 -139 0 -127 -76 -221 -160 -196 -74 22 -118 102 -106 194 9 62 26 97 66
131 37 31 102 35 139 10z m5904 -12 c11 -11 13 -22 7 -32 -7 -12 -12 -12 -28
4 -14 12 -22 14 -27 6 -4 -6 11 -28 34 -49 31 -29 41 -45 41 -69 0 -41 -25
-55 -66 -37 -37 15 -46 27 -38 49 5 14 9 13 32 -4 18 -15 28 -18 36 -10 8 8
-1 22 -32 48 -33 29 -42 44 -42 68 0 17 3 34 7 37 13 14 60 7 76 -11z m154
-36 c22 -20 25 -27 16 -37 -10 -10 -17 -9 -33 6 -27 25 -50 5 -50 -44 1 -47
22 -75 53 -69 16 3 28 -1 35 -13 14 -21 6 -29 -28 -29 -54 0 -100 63 -100 136
0 29 37 74 60 74 10 0 32 -11 47 -24z m1431 -17 c-13 -9 -85 -32 -103 -34 -5
-1 -20 -6 -32 -13 -38 -21 -214 -93 -278 -114 -33 -10 -70 -26 -82 -34 -19
-12 -23 -12 -23 -1 0 15 41 37 69 37 24 0 83 25 76 32 -6 6 128 58 150 58 7 0
15 4 17 9 5 16 179 79 200 73 15 -4 17 -7 6 -13z m-1345 -93 c5 -54 6 -100 3
-103 -3 -3 -12 -3 -21 0 -12 5 -15 26 -15 108 0 76 3 100 13 97 8 -3 15 -39
20 -102z m118 67 c20 -4 29 -12 29 -24 0 -17 -5 -18 -40 -13 -35 6 -40 4 -40
-13 0 -14 10 -23 32 -29 19 -6 34 -17 36 -27 3 -16 -1 -17 -32 -11 -34 6 -36
5 -33 -17 3 -18 13 -26 40 -33 21 -5 37 -17 40 -28 6 -21 6 -21 -58 -5 l-50
13 -3 103 -3 103 27 -6 c14 -4 39 -10 55 -13z m364 7 c8 -13 -5 -13 -25 0 -13
8 -13 10 2 10 9 0 20 -4 23 -10z m-240 -102 l34 -73 1 63 c0 55 2 63 18 60 15
-3 17 -18 20 -111 3 -132 -5 -134 -66 -21 l-43 79 4 -68 c2 -57 1 -67 -13 -65
-12 3 -16 23 -18 106 -2 88 -1 102 13 102 10 0 29 -27 50 -72z m-2809 47 c35
-10 70 -32 113 -71 34 -31 60 -59 57 -61 -3 -3 -14 4 -26 15 -17 16 -25 18
-35 9 -7 -7 -10 -16 -7 -21 3 -5 1 -6 -5 -3 -5 3 -31 -14 -58 -38 -27 -25 -52
-45 -57 -45 -5 0 -6 -5 -2 -12 5 -7 2 -9 -9 -5 -11 4 -14 2 -10 -9 8 -21 -10
-17 -43 8 -20 16 -15 7 16 -28 25 -28 53 -67 63 -85 l18 -34 -23 30 c-90 118
-220 220 -270 212 -16 -2 -28 -3 -28 -1 0 1 21 19 48 40 38 31 42 32 20 8
l-28 -30 32 -12 c26 -10 38 -8 79 10 27 11 49 24 49 29 0 5 6 9 14 9 8 0 24
14 36 30 12 17 28 29 35 28 28 -6 13 17 -18 29 -46 17 -19 16 39 -2z m-136 -9
c0 -2 -8 -10 -17 -17 -16 -13 -17 -12 -4 4 13 16 21 21 21 13z m2227 -38 c-3
-8 -6 -5 -6 6 -1 11 2 17 5 13 3 -3 4 -12 1 -19z m920 -2 c22 -20 25 -27 16
-37 -10 -10 -16 -9 -31 4 -35 32 -52 16 -52 -47 0 -45 25 -77 58 -74 21 2 27
-1 27 -17 0 -24 -34 -32 -64 -15 -47 25 -75 125 -50 173 24 44 55 48 96 13z
m131 -27 c31 -9 42 -17 42 -32 0 -15 -5 -18 -22 -13 -71 19 -68 20 -65 -5 3
-17 14 -27 35 -33 21 -6 32 -15 32 -27 0 -22 -1 -22 -34 -9 -24 9 -26 7 -26
-19 0 -25 5 -30 36 -35 30 -6 54 -29 42 -41 -6 -6 -91 16 -105 28 -9 6 -13 41
-13 109 0 90 2 99 18 94 9 -2 36 -10 60 -17z m-2943 -49 c10 -11 16 -20 13
-20 -3 0 -13 9 -23 20 -10 11 -16 20 -13 20 3 0 13 -9 23 -20z m1718 -20 c-39
-17 -62 -37 -29 -24 8 3 17 1 20 -4 3 -5 17 -8 31 -7 14 2 23 -1 19 -6 -3 -5
-10 -7 -15 -3 -5 3 -9 2 -8 -3 1 -4 -6 -25 -15 -47 -13 -29 -20 -36 -29 -27
-26 26 -46 12 -52 -36 -10 -77 -15 -74 -12 7 2 42 10 89 18 105 14 29 69 65
99 65 8 0 -4 -9 -27 -20z m-6115 -37 c26 -28 26 -50 0 -67 -24 -15 -48 1 -68
42 -8 17 -18 32 -21 32 -10 0 -38 -71 -49 -124 -6 -26 -15 -155 -20 -285 -11
-258 -18 -308 -54 -387 -27 -59 -63 -84 -121 -84 -74 0 -130 59 -92 97 21 22
52 8 76 -33 26 -44 48 -41 74 10 18 34 21 67 28 295 8 266 19 346 59 439 12
27 31 59 43 70 41 38 108 35 145 -5z m6132 23 c0 -11 -19 -15 -25 -6 -3 5 1
10 9 10 9 0 16 -2 16 -4z m-2160 -24 c89 -36 212 -181 241 -286 7 -27 7 -29
-5 -13 -12 16 -14 16 -20 1 -3 -9 -4 -20 0 -25 3 -5 1 -9 -4 -9 -13 0 -84 -72
-113 -115 -13 -19 -30 -35 -37 -35 -7 0 -20 -7 -28 -15 -9 -8 -12 -15 -9 -15
4 0 -12 -16 -34 -37 -23 -20 -41 -43 -41 -50 0 -8 -3 -12 -7 -10 -5 2 -20 -9
-35 -24 -15 -16 -24 -29 -21 -29 3 0 -8 -14 -26 -30 -17 -17 -29 -35 -26 -40
3 -6 0 -7 -8 -4 -25 9 -28 -12 -6 -37 l20 -24 -7 25 c-3 14 -3 22 1 17 5 -4
17 0 27 10 14 12 18 13 18 3 0 -8 12 1 26 18 15 18 33 32 40 32 7 0 16 5 20
12 5 7 3 8 -6 3 -9 -5 -11 -4 -6 3 4 7 12 12 18 12 5 0 25 17 43 38 19 20 38
37 44 37 6 0 22 15 36 34 14 19 25 31 25 26 0 -4 8 -1 18 7 9 8 24 19 32 23
13 8 13 7 1 -8 -30 -38 7 -14 53 34 26 27 50 48 52 46 6 -5 -693 -707 -726
-729 -63 -44 -157 -3 -285 126 -145 146 -250 319 -250 413 0 41 5 57 25 78 36
39 132 99 341 215 102 56 264 155 360 219 181 122 196 128 259 103z m-3534
-19 c-3 -16 -3 -23 0 -16 4 9 10 10 24 1 13 -9 17 -21 14 -47 l-3 -36 16 33
c14 27 33 43 33 27 0 -8 -141 -379 -218 -571 l-67 -171 -55 24 c-30 13 -56 25
-58 27 -1 2 9 32 23 67 15 35 37 92 50 127 l24 62 -39 0 c-36 0 -40 -2 -40
-25 0 -17 7 -29 23 -35 l22 -9 -22 0 c-31 -1 -49 34 -34 67 11 22 16 24 55 20
l42 -5 77 187 c97 237 125 300 133 300 3 0 4 -12 0 -27z m5749 7 c-7 -12 53
-40 85 -40 12 0 19 -4 16 -9 -4 -5 8 -7 25 -4 36 5 122 -24 113 -38 -3 -5 3
-12 13 -15 10 -3 29 -11 43 -17 14 -6 28 -10 32 -9 4 1 29 -5 55 -14 71 -24
300 -94 363 -110 30 -8 64 -19 75 -24 11 -5 47 -20 80 -34 116 -48 32 -29
-235 54 -186 58 -196 60 -412 124 -86 25 -188 56 -227 69 -69 24 -70 24 -75 3
-3 -11 -8 -17 -12 -14 -11 11 21 63 39 62 9 -1 16 1 15 5 -1 12 2 21 8 21 3 0
2 -5 -1 -10z m-5439 -145 c24 -61 82 -209 129 -330 48 -121 89 -225 92 -231 2
-7 -16 -19 -43 -28 -58 -19 -70 -13 -20 10 20 10 36 22 36 27 0 5 -30 79 -66
165 -37 87 -71 171 -77 187 -5 17 -13 35 -17 40 -4 6 -13 27 -20 48 -6 21 -14
36 -16 34 -3 -2 9 -41 26 -86 33 -91 34 -95 21 -86 -5 3 -12 1 -16 -4 -3 -6 3
-8 14 -6 13 2 18 -1 15 -10 -6 -14 -44 -9 -44 7 0 5 -4 7 -9 4 -14 -9 -20 31
-7 45 9 11 8 11 -6 0 -17 -13 -12 -41 19 -101 7 -14 13 -30 13 -37 0 -7 20
-65 45 -129 25 -64 43 -119 41 -121 -2 -2 -22 42 -44 99 -94 240 -113 290
-166 417 -31 74 -55 135 -54 136 2 0 22 9 46 20 23 10 42 24 42 32 0 38 26 -3
66 -102z m7541 83 c-3 -8 -6 -5 -6 6 -1 11 2 17 5 13 3 -3 4 -12 1 -19z m-7
-181 l0 -163 -122 -64 c-123 -63 -189 -98 -283 -150 -27 -15 -108 -58 -180
-95 -71 -37 -148 -78 -171 -91 -22 -13 -44 -21 -47 -17 -10 9 -9 53 1 51 4 -1
22 6 40 16 28 14 36 15 50 4 10 -8 13 -9 9 -1 -7 11 28 30 46 25 12 -3 130 60
143 77 6 8 16 11 22 7 7 -4 12 -3 12 3 0 5 105 61 233 124 l232 114 -1 61 c0
34 -3 64 -7 68 -3 3 -16 -3 -28 -15 -15 -13 -30 -19 -42 -15 -13 4 -17 2 -13
-5 4 -6 -11 -19 -33 -31 -57 -28 -65 -24 -11 6 27 15 36 23 21 20 -17 -4 -21
-2 -13 6 6 6 25 11 41 11 17 0 28 4 25 8 -3 5 11 15 31 23 23 10 34 21 33 33
-3 37 2 153 7 153 3 0 5 -73 5 -163z m-6525 38 l0 -30 -75 -5 -74 -5 -10 -40
c-15 -67 -13 -349 3 -368 21 -27 47 -20 80 20 26 31 31 34 37 19 18 -46 -64
-146 -120 -146 -86 0 -115 142 -82 405 8 60 12 113 10 117 -3 5 -38 8 -79 8
l-73 0 -7 -97 c-15 -219 -48 -385 -84 -417 -24 -22 -59 -18 -77 9 -11 17 -8
30 22 99 41 94 62 198 66 320 l3 88 -42 -5 c-29 -3 -54 -15 -78 -36 -20 -17
-40 -31 -45 -31 -14 0 -13 46 1 73 31 60 16 58 333 55 l291 -3 0 -30z m4531 2
c21 -18 25 -27 17 -41 -9 -16 -11 -16 -22 -2 -8 9 -19 16 -27 16 -29 0 -23
-22 15 -56 43 -39 59 -81 41 -113 -15 -29 -52 -26 -90 5 -24 21 -28 29 -19 40
9 11 15 10 36 -6 25 -20 43 -19 43 2 0 6 -18 28 -40 48 -44 41 -53 85 -24 114
21 22 38 20 70 -7z m154 -44 c38 -26 50 -46 38 -61 -9 -10 -15 -8 -30 8 -24
25 -44 26 -58 1 -31 -59 23 -166 66 -131 9 9 15 6 24 -9 9 -18 7 -23 -13 -32
-83 -38 -171 148 -102 216 29 29 42 31 75 8z m1740 -3 c-13 -9 -13 -10 0 -10
8 -1 -9 -12 -39 -26 -30 -13 -56 -23 -58 -20 -2 2 10 9 27 16 16 7 28 16 25
20 -3 5 4 6 15 3 12 -3 20 -2 19 3 -3 17 1 24 14 24 8 0 7 -4 -3 -10z m-1620
-147 c0 -104 -2 -114 -17 -111 -16 3 -18 18 -21 120 -3 113 -2 116 18 111 19
-5 20 -13 20 -120z m107 80 c44 -14 53 -21 53 -39 0 -23 -1 -23 -41 -9 -53 19
-51 20 -47 -12 2 -20 11 -29 38 -38 24 -8 36 -19 38 -34 3 -22 3 -22 -33 -6
-48 19 -45 20 -45 -14 0 -26 5 -31 43 -43 29 -10 43 -21 45 -36 l3 -21 -60 20
-61 21 0 114 c0 63 3 114 7 114 3 0 30 -8 60 -17z m1363 -18 c-14 -8 -29 -14
-35 -14 -5 0 1 6 15 14 14 8 30 14 35 14 6 0 -1 -6 -15 -14z m38 -14 c-61 -31
-126 -56 -115 -44 10 9 150 72 162 72 6 0 -16 -13 -47 -28z m-1248 -81 c19
-44 36 -80 39 -80 3 0 4 29 3 65 -3 60 -2 65 17 65 20 0 21 -5 21 -121 0 -92
-3 -120 -12 -117 -7 2 -32 42 -55 88 l-43 85 0 -68 c0 -60 -2 -68 -17 -65 -16
3 -18 18 -21 116 -2 103 -1 112 16 112 13 0 27 -21 52 -80z m1140 65 c-14 -8
-29 -14 -35 -14 -5 0 1 6 15 14 14 8 30 14 35 14 6 0 -1 -6 -15 -14z m275 5
c-3 -5 -12 -10 -18 -10 -7 0 -6 4 3 10 19 12 23 12 15 0z m-817 -57 c-14 -40
-22 -99 -28 -188 l-7 -130 -1 115 c-1 133 8 198 32 234 25 39 26 32 4 -31z
m492 37 c0 -10 -346 -163 -422 -187 -10 -3 -18 -12 -18 -20 0 -12 7 -14 32 -9
17 3 39 12 47 20 9 7 75 39 146 71 139 61 171 74 142 55 -9 -6 -15 -15 -12
-20 3 -4 -5 -6 -17 -3 -19 4 -20 3 -8 -6 16 -11 16 -11 -30 -15 -31 -3 -90
-28 -85 -36 3 -5 13 -7 23 -4 14 5 14 4 2 -4 -10 -8 -18 -7 -28 1 -11 9 -17 7
-27 -7 -8 -10 -19 -15 -26 -10 -7 4 -10 3 -6 -3 8 -12 -41 -37 -65 -34 -12 1
-16 -3 -12 -12 3 -9 -3 -17 -18 -20 -29 -8 -65 -33 -57 -42 4 -3 64 21 134 55
71 33 130 58 133 55 3 -3 10 -1 16 4 6 4 35 16 64 26 28 11 52 23 52 27 0 4 3
7 8 6 4 -1 49 19 100 46 52 26 99 45 105 43 7 -2 31 4 55 15 48 20 62 22 62
10 0 -4 -26 -17 -57 -27 -32 -11 -78 -31 -102 -44 -25 -14 -41 -19 -37 -13 8
14 0 14 -29 2 -14 -6 -15 -9 -5 -10 8 0 -25 -18 -75 -39 -49 -21 -123 -55
-163 -75 -49 -25 -81 -35 -95 -31 -16 4 -18 4 -8 -3 9 -7 10 -12 2 -16 -6 -4
-11 -2 -11 5 0 8 -8 4 -19 -8 -10 -11 -39 -26 -65 -33 -43 -12 -75 -34 -64
-46 5 -5 170 63 221 92 15 8 31 13 36 10 5 -3 14 1 20 8 15 18 221 109 229
101 3 -3 -4 -8 -16 -12 -12 -3 -19 -9 -16 -14 3 -5 -2 -6 -10 -3 -9 3 -16 1
-16 -5 0 -10 -54 -42 -106 -61 -18 -7 -23 -7 -18 1 4 7 2 10 -5 8 -7 -3 -13
-9 -13 -14 -1 -10 -108 -67 -150 -81 -13 -4 -54 -22 -92 -40 -38 -19 -71 -34
-73 -34 -1 0 -3 48 -3 108 l0 107 60 21 c32 11 57 17 54 12 -3 -4 -1 -8 5 -8
5 0 13 5 16 10 3 6 16 10 28 10 18 0 19 2 7 11 -12 8 -10 9 7 4 12 -3 25 -1
29 6 5 8 3 10 -7 4 -10 -6 -11 -5 -4 3 14 15 88 45 80 33 -8 -14 15 -14 35 -1
13 9 13 10 0 10 -13 0 -13 1 0 10 8 5 23 7 34 4 13 -4 16 -3 11 6 -5 9 -4 11
4 6 7 -5 26 -2 42 5 22 8 27 14 17 20 -8 5 -5 8 10 6 12 0 22 -4 22 -7z
m-5165 -48 c-6 -8 -35 12 -35 24 0 11 4 10 18 -3 10 -10 18 -19 17 -21z m5185
18 c-12 -8 -12 -10 -1 -10 8 0 12 -2 9 -5 -3 -3 -13 -2 -22 1 -14 5 -15 9 -4
15 7 5 18 9 23 9 6 0 3 -5 -5 -10z m-864 -41 c27 -30 5 -44 -35 -22 -31 18
-32 17 -47 -2 -20 -26 -13 -98 12 -126 13 -15 26 -19 45 -15 19 3 29 0 33 -10
9 -23 -2 -34 -32 -34 -76 0 -137 124 -101 204 22 48 84 51 125 5z m1124 32 c0
-5 -10 -11 -22 -14 -22 -6 -22 -6 -4 8 23 17 26 18 26 6z m-305 -11 c-3 -5
-12 -10 -18 -10 -7 0 -6 4 3 10 19 12 23 12 15 0z m-5181 -16 c3 -8 2 -12 -4
-9 -6 3 -10 10 -10 16 0 14 7 11 14 -7z m-34 2 c0 -3 -4 -8 -10 -11 -5 -3 -10
-1 -10 4 0 6 5 11 10 11 6 0 10 -2 10 -4z m2025 -14 c-3 -3 -11 0 -18 7 -9 10
-8 11 6 5 10 -3 15 -9 12 -12z m-2039 -30 c-6 -5 -36 23 -36 34 0 4 9 -1 20
-11 11 -10 18 -20 16 -23z m4535 15 c34 -10 45 -18 47 -36 3 -20 0 -23 -15
-17 -10 4 -30 10 -45 13 -25 5 -28 2 -28 -19 0 -20 7 -27 40 -37 30 -9 40 -17
40 -32 0 -15 -5 -19 -17 -15 -10 2 -28 7 -41 11 -21 6 -23 4 -20 -22 2 -23 10
-30 46 -41 30 -10 42 -19 42 -33 0 -23 0 -23 -65 -3 l-52 17 -7 81 c-10 139
-9 158 13 151 10 -3 38 -11 62 -18z m-6471 -8 c0 -10 -219 -13 -270 -3 -62 13
-11 19 129 16 80 -2 141 -7 141 -13z m283 -6 c9 -15 -19 -30 -40 -22 -37 14
-37 29 1 29 19 0 37 -3 39 -7z m7017 -15 c0 -4 -4 -8 -9 -8 -6 0 -12 4 -15 8
-3 5 1 9 9 9 8 0 15 -4 15 -9z m-7477 -25 c-24 -2 -62 -2 -85 0 -24 2 -5 4 42
4 47 0 66 -2 43 -4z m164 -9 c-3 -3 -12 -4 -19 -1 -8 3 -5 6 6 6 11 1 17 -2
13 -5z m303 -18 c0 -2 -9 -6 -20 -9 -11 -3 -20 -1 -20 4 0 5 9 9 20 9 11 0 20
-2 20 -4z m-38 -203 c2 -13 -8 -23 -35 -35 -45 -21 -47 -21 -47 -9 0 5 13 12
30 16 16 4 33 11 37 17 4 8 0 9 -11 5 -10 -4 -29 -10 -42 -13 -13 -3 -24 -12
-24 -19 0 -16 66 -104 122 -163 24 -25 34 -40 22 -34 -19 10 -109 114 -147
172 -16 23 -24 61 -11 48 3 -4 24 2 47 13 52 23 55 23 59 2z m-756 -50 c-6 -6
-106 30 -106 38 0 4 25 -2 55 -14 31 -11 53 -22 51 -24z m-109 -110 c-2 -21
-4 -4 -4 37 0 41 2 58 4 38 2 -21 2 -55 0 -75z m902 32 c0 -5 -4 -3 -9 5 -5 8
-9 22 -9 30 0 16 17 -16 18 -35z m4051 -179 c0 -2 -8 -10 -17 -17 -16 -13 -17
-12 -4 4 13 16 21 21 21 13z m-69 -84 c-11 -16 -28 -35 -38 -43 -10 -8 -3 5
16 29 37 47 53 58 22 14z m-4220 -178 c30 -15 60 -67 58 -101 0 -10 -5 -5 -12
14 -15 40 -21 45 -54 50 -52 8 -67 4 -96 -27 -39 -42 -43 -71 -12 -100 23 -22
25 -30 25 -125 0 -67 4 -106 13 -115 10 -12 9 -12 -5 -1 -15 11 -18 30 -18
117 0 93 -2 104 -20 114 -11 6 -27 25 -36 42 -13 26 -14 38 -5 70 21 68 96 97
162 62z m6911 -50 c283 -34 499 -110 555 -193 21 -31 22 -41 20 -249 l-1 -217
-3 182 -3 183 -41 -30 c-131 -94 -418 -155 -799 -168 -115 -4 -173 -9 -140
-12 44 -4 55 -8 54 -22 -1 -11 3 -15 10 -11 6 3 3 -3 -7 -14 -14 -16 -15 -23
-6 -29 8 -5 10 -3 4 7 -5 8 -4 11 0 6 12 -11 14 -69 3 -87 -6 -11 -7 -8 -3 10
5 22 4 23 -5 7 -7 -10 -9 -25 -6 -33 5 -14 -9 -20 -17 -6 -5 9 1 -12 10 -35 6
-16 3 -15 -17 2 l-23 20 12 -22 c9 -17 9 -28 0 -44 -8 -15 -8 -19 0 -15 6 4
11 3 11 -3 0 -5 -4 -11 -9 -13 -6 -1 -13 -26 -17 -54 -8 -63 -7 -63 135 -74
87 -6 79 -7 -84 -9 -106 0 -233 5 -307 14 -209 24 -434 87 -505 141 l-32 24
-11 -21 c-9 -17 -8 -30 4 -63 36 -93 214 -168 506 -213 124 -19 430 -24 735
-12 l160 7 -90 -19 c-133 -26 -278 -39 -464 -40 -169 -1 -183 -3 -98 -14 46
-6 47 -7 47 -41 0 -20 -5 -34 -12 -34 -10 0 -10 -2 0 -9 10 -6 11 -13 1 -34
-7 -15 -17 -27 -22 -27 -6 0 -7 -3 -4 -6 4 -4 13 -1 22 6 8 7 15 8 15 2 0 -5
-7 -15 -15 -22 -8 -7 -15 -18 -15 -26 0 -7 -7 -17 -16 -22 -11 -6 -13 -11 -5
-16 6 -4 11 -2 11 3 0 6 5 11 12 11 6 0 4 -8 -6 -19 -10 -11 -15 -25 -11 -30
3 -6 -1 -11 -10 -11 -15 0 -15 -1 0 -16 14 -15 14 -17 -2 -30 -17 -13 -17 -14
2 -7 19 6 19 6 2 -14 -26 -30 -17 -35 93 -52 49 -7 44 -8 -58 -10 -298 -3
-613 72 -769 185 -21 15 -22 14 -33 -26 l-11 -42 64 -63 c83 -79 170 -117 362
-156 188 -39 371 -53 600 -47 107 3 177 2 160 -3 -20 -6 -4 -7 50 -5 l80 4
-75 -14 c-41 -8 -181 -17 -310 -21 -131 -4 -217 -10 -195 -14 22 -3 33 -7 25
-8 -17 -1 -45 -40 -36 -49 3 -3 6 -1 6 5 0 6 7 13 15 17 13 5 13 3 0 -18 -9
-13 -13 -32 -9 -42 5 -18 5 -18 -9 -1 -14 17 -15 16 -20 -3 -4 -15 0 -20 16
-20 17 0 19 -2 8 -9 -8 -5 -21 -7 -30 -4 -13 4 -14 3 -2 -5 13 -9 13 -13 0
-28 -13 -16 -12 -17 6 -10 11 4 16 4 12 0 -4 -4 -1 -14 6 -22 10 -13 9 -14 -2
-7 -11 6 -13 4 -8 -8 3 -10 2 -17 -3 -17 -6 0 -10 5 -10 12 0 6 -3 8 -7 5 -3
-4 2 -17 13 -29 16 -18 17 -21 2 -15 -12 4 -15 2 -11 -8 3 -8 8 -13 12 -11 3
2 5 -12 5 -32 -1 -20 -7 -38 -13 -40 -6 -2 -11 -11 -11 -20 0 -15 2 -15 10 -2
6 10 10 11 10 2 0 -6 3 -11 8 -10 4 0 14 -2 22 -5 8 -4 42 -8 75 -10 42 -2 32
-4 -35 -5 -325 -6 -691 107 -768 236 l-27 47 -2 219 c-2 199 -1 223 17 264 18
39 18 46 5 65 -12 18 -15 64 -15 252 0 209 2 233 19 261 19 32 19 32 -5 80
-25 48 -25 52 -22 271 l3 222 30 31 c83 87 349 164 660 190 132 11 422 3 577
-16z m-2962 -47 c0 -2 -10 -12 -22 -23 l-23 -19 19 23 c18 21 26 27 26 19z
m-3900 -35 c0 -5 -7 -17 -15 -28 -14 -18 -14 -17 -4 9 12 27 19 34 19 19z
m-736 -131 c30 -12 36 -79 11 -117 -19 -29 -78 -33 -114 -8 -20 14 -22 23 -18
56 5 35 4 38 -11 26 -11 -8 -10 -4 3 11 32 38 83 50 129 32z m1364 -79 c79
-67 81 -75 44 -189 -91 -285 -103 -622 -32 -912 17 -67 30 -127 30 -133 0 -65
-80 268 -89 372 -7 82 -8 87 -10 35 -1 -50 14 -167 33 -262 5 -25 -4 -30 -74
-39 -28 -4 -53 -11 -56 -16 -4 -6 1 -8 12 -5 11 3 45 8 77 12 51 6 57 5 57
-12 0 -10 6 -43 14 -73 8 -30 11 -56 6 -58 -5 -2 0 -12 11 -23 25 -25 24 -42
-3 -65 -23 -19 -23 -19 -5 2 21 25 21 38 1 58 -10 10 -24 14 -40 10 -17 -4
-26 -1 -30 11 -4 10 -14 15 -25 12 -11 -3 -17 -2 -14 3 3 4 -3 14 -12 21 -15
12 -16 12 -9 -5 7 -19 6 -19 -14 -1 -18 16 -20 16 -20 2 0 -10 -5 -17 -11 -17
-8 0 -10 -12 -6 -36 12 -70 -5 -24 -43 118 -70 263 -75 295 -75 505 0 106 -4
193 -8 193 -4 0 -67 -58 -140 -130 -72 -71 -133 -130 -135 -130 -10 0 71 94
145 169 45 47 81 86 79 89 -3 2 -55 -47 -118 -108 -97 -97 -114 -110 -123 -95
-5 9 -31 49 -56 88 l-47 71 208 221 c227 240 337 350 360 358 30 12 75 -4 118
-41z m2932 -16 c0 -2 -8 -10 -17 -17 -16 -13 -17 -12 -4 4 13 16 21 21 21 13z
m-3879 -37 c11 -6 45 -61 74 -122 30 -62 59 -117 64 -123 5 -6 18 -29 29 -50
l20 -39 -104 -34 c-57 -19 -104 -38 -104 -42 0 -15 27 -10 105 21 42 17 79 30
84 30 5 0 18 -22 30 -49 11 -28 33 -63 49 -80 15 -17 58 -88 97 -158 38 -70
91 -162 117 -203 26 -41 48 -80 48 -87 0 -6 4 -13 9 -15 4 -1 24 -28 43 -58
50 -80 82 -138 64 -115 -9 11 -23 28 -31 38 -8 9 -15 22 -15 28 0 5 -5 7 -12
3 -7 -5 -8 -3 -3 6 6 10 3 12 -13 8 -15 -4 -19 -2 -15 8 3 8 0 14 -7 14 -6 0
-8 5 -5 11 11 17 -27 39 -48 28 -17 -10 -16 -11 5 -29 22 -17 22 -18 3 -17
-11 1 -24 7 -28 12 -5 6 -7 0 -4 -13 5 -19 3 -21 -9 -11 -7 6 -11 15 -8 20 3
5 0 9 -6 9 -6 0 -8 5 -5 10 4 6 2 9 -3 8 -6 -2 -26 15 -46 37 -20 22 45 -75
144 -214 210 -295 268 -391 116 -189 -24 31 -47 54 -51 50 -4 -4 -5 -2 -3 5 2
6 -6 19 -17 28 -11 9 -13 13 -5 9 9 -4 6 2 -5 13 -29 29 -57 63 -84 104 -14
20 -34 42 -45 49 -17 11 -16 7 7 -23 113 -149 345 -487 334 -487 -3 0 -37 48
-77 108 -92 135 -583 793 -588 787 -2 -2 17 -32 42 -68 l45 -64 -10 -63 c-13
-81 -158 -585 -166 -577 -2 2 8 45 22 96 14 50 36 132 50 182 26 93 28 131 4
65 -7 -20 -16 -36 -19 -36 -3 0 -16 -9 -27 -20 -20 -18 -22 -18 -28 -2 -5 12
-14 -4 -31 -53 -18 -54 -23 -63 -24 -40 -1 17 -23 -58 -51 -165 -27 -107 -48
-205 -45 -218 2 -15 0 -20 -6 -14 -11 11 13 191 37 277 7 28 30 131 50 230 20
99 48 231 61 294 13 63 22 116 19 119 -5 6 -25 -43 -25 -64 0 -8 -4 -13 -8
-10 -5 3 -17 -9 -27 -27 -10 -18 -23 -35 -29 -39 -5 -3 -57 -53 -115 -110
-170 -165 -302 -283 -316 -282 -8 1 -11 -5 -7 -14 4 -11 1 -14 -12 -9 -10 4
-15 3 -11 -3 6 -10 -81 -95 -99 -95 -6 -1 -10 -7 -8 -14 1 -7 -2 -10 -7 -7
-11 7 -79 -69 -92 -103 -5 -13 -12 -21 -15 -18 -18 17 67 110 404 445 364 362
375 375 387 424 12 56 3 92 -59 232 -14 32 -26 69 -26 82 0 26 -7 58 -51 230
-16 61 -29 118 -29 126 0 30 83 48 121 27z m2038 -235 c17 -34 40 -87 51 -118
19 -49 25 -56 53 -60 39 -6 197 -26 207 -26 4 0 10 -10 14 -22 4 -19 -11 -39
-85 -114 l-90 -90 21 -124 c19 -109 19 -125 6 -138 -13 -13 -27 -7 -119 52
-57 36 -108 66 -112 66 -5 0 -58 -30 -117 -66 -61 -37 -115 -63 -123 -60 -20
7 -19 59 4 176 l19 95 -83 85 c-72 73 -83 89 -78 112 6 31 15 34 146 43 78 6
100 11 104 24 35 99 69 176 94 211 36 50 42 47 88 -46z m3026 -73 c44 -114 26
-102 190 -122 49 -5 90 -11 91 -12 1 -1 5 -12 8 -24 6 -17 -9 -36 -84 -109
-73 -70 -89 -91 -84 -108 4 -11 15 -68 24 -126 18 -108 14 -138 -17 -125 -8 3
-56 32 -107 65 -51 33 -99 60 -106 60 -7 0 -60 -30 -117 -66 -99 -62 -106 -65
-123 -49 -21 19 -21 16 12 175 l19 95 -85 81 c-125 117 -119 137 46 149 54 4
104 12 111 19 8 6 27 46 42 89 15 43 41 99 58 125 l29 47 27 -32 c15 -18 44
-77 66 -132z m1785 139 c0 -5 -2 -10 -4 -10 -3 0 -8 5 -11 10 -3 6 -1 10 4 10
6 0 11 -4 11 -10z m-7242 -166 c20 -13 22 -24 22 -94 l0 -79 97 -3 c97 -3 98
-3 107 -31 19 -52 2 -62 -116 -65 l-105 -3 -7 -121 c-4 -70 -12 -128 -19 -137
-10 -12 -9 -14 8 -8 20 7 20 7 1 -8 -25 -19 -28 -19 -61 7 l-27 21 7 124 7
123 -109 0 c-71 0 -113 4 -121 12 -16 16 -15 50 2 74 12 16 29 19 117 21 56 2
104 5 107 7 2 3 7 36 9 73 7 94 33 121 81 87z m8159 -166 c-3 -8 -6 -5 -6 6
-1 11 2 17 5 13 3 -3 4 -12 1 -19z m-5011 -81 c11 -17 37 -72 57 -122 l36 -90
123 -15 c117 -14 123 -16 126 -39 3 -19 -15 -42 -83 -111 l-86 -86 22 -121
c21 -112 21 -153 2 -153 -4 0 -55 29 -112 65 -58 36 -108 65 -113 65 -4 0 -56
-29 -113 -65 -58 -36 -110 -65 -115 -65 -5 0 -14 9 -20 19 -7 15 -4 51 13 140
l24 120 -84 83 c-66 65 -83 88 -81 108 3 28 24 34 159 45 l85 6 32 87 c39 104
78 173 95 166 7 -2 21 -19 33 -37z m1533 -36 c15 -31 38 -83 50 -117 l22 -61
122 -14 c117 -13 122 -15 125 -38 3 -19 -14 -40 -81 -105 l-86 -81 18 -95 c42
-218 42 -217 -104 -126 -57 36 -108 66 -112 66 -5 0 -55 -29 -112 -65 -151
-95 -163 -86 -126 93 l24 117 -85 86 c-78 78 -84 87 -75 111 10 28 22 31 168
44 l71 6 23 62 c28 76 66 155 87 178 20 24 36 10 71 -61z m2161 -23 c162 -30
171 -33 130 -41 -93 -16 -363 36 -373 73 -4 15 0 16 32 8 20 -4 115 -23 211
-40z m-2927 -125 c16 -22 49 -90 72 -149 l43 -109 49 -7 c26 -3 94 -11 150
-18 l101 -12 5 -32 c5 -28 -3 -39 -98 -136 l-103 -105 18 -110 c32 -200 32
-191 12 -216 l-19 -22 -129 81 c-71 45 -134 82 -140 82 -6 0 -68 -36 -139 -79
-133 -83 -155 -88 -170 -43 -4 16 33 228 50 282 4 11 -27 49 -100 122 -87 88
-105 111 -105 136 0 17 5 34 10 37 6 4 72 13 147 21 76 8 140 18 144 22 4 4
21 45 38 90 41 114 98 214 119 210 9 -2 29 -22 45 -45z m-3620 -357 c-10 -13
-20 -22 -22 -20 -4 4 29 44 36 44 2 0 -4 -11 -14 -24z m-33 -39 c0 -2 -12 -14
-27 -28 l-28 -24 24 28 c23 25 31 32 31 24z m1164 -147 c5 -20 3 -19 -8 5 -7
17 -16 41 -20 55 -5 20 -3 19 8 -5 7 -16 16 -41 20 -55z m-74 15 c-7 -8 -18
-15 -24 -15 -6 0 -2 7 8 15 25 19 32 19 16 0z m40 -70 c0 -2 -13 -11 -30 -20
-38 -19 -40 -11 -2 9 31 17 32 18 32 11z m-1063 -77 c-3 -7 -5 -2 -5 12 0 14
2 19 5 13 2 -7 2 -19 0 -25z m-10 -40 c-3 -8 -6 -5 -6 6 -1 11 2 17 5 13 3 -3
4 -12 1 -19z"/>
<path d="M1915 8643 c-228 -14 -332 -93 -366 -277 -14 -76 -1 -192 28 -254 40
-84 137 -149 283 -189 93 -26 391 -25 509 0 199 43 309 119 352 242 20 60 16
190 -9 271 -40 131 -100 184 -229 203 -64 10 -436 13 -568 4z m43 -215 c48
-45 64 -120 42 -200 -11 -38 -70 -111 -77 -93 -2 6 -19 9 -38 7 -63 -7 -105
38 -120 126 -4 24 -12 45 -19 48 -6 2 -13 16 -14 30 -1 17 2 23 10 18 7 -4 8
-3 4 4 -16 27 40 79 99 92 39 8 82 -4 113 -32z m569 8 c36 -33 38 -37 41 -110
5 -100 -19 -155 -82 -185 -23 -12 -49 -21 -57 -20 -8 0 -6 4 6 8 17 7 15 9
-15 20 -19 6 -51 26 -70 43 -33 30 -35 36 -38 103 -4 83 15 123 75 154 58 31
97 27 140 -13z m-650 -322 c-3 -3 -12 -4 -19 -1 -8 3 -5 6 6 6 11 1 17 -2 13
-5z m250 -110 c-3 -3 -12 -4 -19 -1 -8 3 -5 6 6 6 11 1 17 -2 13 -5z m50 -10
c-3 -3 -12 -4 -19 -1 -8 3 -5 6 6 6 11 1 17 -2 13 -5z"/>
<path d="M1430 8021 c0 -6 4 -13 10 -16 6 -3 7 1 4 9 -7 18 -14 21 -14 7z"/>
<path d="M1500 7956 c0 -4 7 -14 15 -22 8 -9 15 -11 15 -6 0 5 -7 15 -15 22
-8 7 -15 9 -15 6z"/>
<path d="M8088 8573 c46 -2 118 -2 160 0 42 1 5 3 -83 3 -88 0 -123 -2 -77 -3z"/>
<path d="M7663 8043 c20 -2 54 -2 75 0 20 2 3 4 -38 4 -41 0 -58 -2 -37 -4z"/>
<path d="M2023 7340 c-61 -9 -110 -41 -128 -84 -20 -48 -28 -131 -20 -204 11
-105 49 -130 205 -135 188 -5 287 26 330 103 21 38 25 58 25 130 -1 99 -21
152 -69 181 -26 16 -50 19 -161 18 -71 -1 -153 -5 -182 -9z m320 -14 c58 -24
72 -57 72 -171 0 -82 -4 -106 -20 -135 -21 -37 -82 -73 -144 -85 l-34 -7 40
38 c90 86 50 200 -77 219 -85 12 -180 -63 -180 -142 0 -35 24 -92 44 -106 6
-4 0 -5 -14 -3 -14 3 -34 5 -45 5 -26 2 -52 18 -42 27 3 4 12 2 19 -3 15 -12
58 -24 58 -16 0 3 -10 17 -21 31 -20 25 -21 25 -15 5 l7 -23 -44 23 c-25 12
-48 31 -51 42 -3 11 -6 61 -6 110 0 97 15 138 62 169 47 31 332 47 391 22z
m-102 -189 c27 -18 35 -30 37 -59 3 -36 -14 -85 -25 -74 -4 3 -13 0 -22 -8
-36 -31 -80 -37 -136 -18 -46 16 -52 16 -48 3 4 -10 0 -9 -10 4 -21 26 -21 84
-1 114 44 62 142 81 205 38z"/>
<path d="M1480 7012 c0 -5 7 -17 16 -28 8 -10 13 -14 10 -7 -4 6 0 14 6 16 8
3 6 6 -5 6 -10 1 -15 6 -12 11 3 6 1 10 -4 10 -6 0 -11 -4 -11 -8z"/>
<path d="M2424 6858 l-19 -23 23 19 c21 18 27 26 19 26 -2 0 -12 -10 -23 -22z"/>
<path d="M1590 6856 c0 -2 8 -10 18 -17 15 -13 16 -12 3 4 -13 16 -21 21 -21
13z"/>
<path d="M2025 6819 c-9 -14 -2 -20 14 -10 8 6 9 11 3 15 -6 3 -14 1 -17 -5z"/>
<path d="M2180 6799 c0 -5 5 -7 10 -4 6 3 10 8 10 11 0 2 -4 4 -10 4 -5 0 -10
-5 -10 -11z"/>
<path d="M2215 6799 c3 -8 14 -20 24 -26 15 -10 22 -8 35 6 16 17 15 18 -11
15 -15 -1 -33 2 -40 8 -10 8 -12 7 -8 -3z"/>
<path d="M1764 6735 c36 -19 47 -19 22 0 -11 8 -27 15 -35 15 -9 0 -3 -7 13
-15z"/>
<path d="M8308 7384 c-11 -23 -10 -29 11 -45 22 -18 25 -18 42 -3 22 20 24 45
7 62 -20 20 -48 14 -60 -14z"/>
<path d="M8745 7360 c3 -5 10 -10 16 -10 5 0 9 5 9 10 0 6 -7 10 -16 10 -8 0
-12 -4 -9 -10z"/>
<path d="M961 7022 c-15 -29 -14 -106 3 -147 15 -35 59 -65 96 -65 33 0 75 26
88 55 16 34 15 40 -2 26 -9 -8 -15 -8 -18 -2 -1 6 -12 12 -23 14 -11 2 -33 9
-48 15 -16 7 -32 12 -36 12 -17 0 -34 31 -38 67 -5 46 -9 50 -22 25z"/>
<path d="M6228 6523 c7 -3 16 -2 19 1 4 3 -2 6 -13 5 -11 0 -14 -3 -6 -6z"/>
<path d="M3592 4990 c0 -14 2 -19 5 -12 2 6 2 18 0 25 -3 6 -5 1 -5 -13z"/>
<path d="M3602 4940 c0 -14 2 -19 5 -12 2 6 2 18 0 25 -3 6 -5 1 -5 -13z"/>
<path d="M3612 4890 c0 -14 2 -19 5 -12 2 6 2 18 0 25 -3 6 -5 1 -5 -13z"/>
<path d="M3621 4844 c0 -11 3 -14 6 -6 3 7 2 16 -1 19 -3 4 -6 -2 -5 -13z"/>
<path d="M3636 4795 c9 -52 45 -167 50 -162 5 4 -23 103 -47 167 -8 23 -9 22
-3 -5z"/>
<path d="M3701 4744 c0 -11 3 -14 6 -6 3 7 2 16 -1 19 -3 4 -6 -2 -5 -13z"/>
<path d="M3720 4675 c0 -8 4 -15 10 -15 5 0 7 7 4 15 -4 8 -8 15 -10 15 -2 0
-4 -7 -4 -15z"/>
<path d="M3700 4586 c0 -19 74 -194 124 -293 57 -114 174 -296 249 -388 53
-64 228 -245 238 -245 4 0 -17 24 -48 53 -199 188 -410 507 -524 795 -30 74
-39 93 -39 78z"/>
<path d="M4355 3620 c10 -11 20 -20 23 -20 3 0 -3 9 -13 20 -10 11 -20 20 -23
20 -3 0 3 -9 13 -20z"/>
<path d="M4845 3490 c3 -5 11 -10 16 -10 6 0 7 5 4 10 -3 6 -11 10 -16 10 -6
0 -7 -4 -4 -10z"/>
<path d="M4705 3440 c-3 -5 -1 -10 4 -10 6 0 11 5 11 10 0 6 -2 10 -4 10 -3 0
-8 -4 -11 -10z"/>
<path d="M4750 3367 c0 -3 12 -12 26 -22 15 -9 23 -12 20 -6 -7 11 -46 35 -46
28z"/>
<path d="M5140 3130 c-13 -8 -13 -10 2 -10 9 0 20 5 23 10 8 13 -5 13 -25 0z"/>
<path d="M7805 6215 c-39 -14 -39 -14 -5 -8 19 4 45 7 57 7 11 1 19 4 16 9 -6
10 -21 8 -68 -8z"/>
<path d="M7715 6190 c-13 -5 -14 -9 -5 -9 8 0 24 4 35 9 13 5 14 9 5 9 -8 0
-24 -4 -35 -9z"/>
<path d="M7555 6144 c-82 -28 -49 -25 45 4 36 11 56 20 45 20 -11 0 -51 -11
-90 -24z"/>
<path d="M8133 6175 c0 -22 2 -30 4 -17 2 12 2 30 0 40 -3 9 -5 -1 -4 -23z"/>
<path d="M7963 6189 c-42 -12 -42 -16 1 -15 19 1 32 4 30 8 -2 3 2 9 8 11 21
9 -5 6 -39 -4z"/>
<path d="M8060 6180 c-13 -8 -12 -10 3 -10 9 0 17 5 17 10 0 12 -1 12 -20 0z"/>
<path d="M8186 6124 c-4 -9 -4 -19 -1 -22 3 -3 5 0 5 7 0 7 4 9 10 6 6 -3 7 1
4 9 -8 20 -10 20 -18 0z"/>
<path d="M8315 6090 c3 -5 11 -10 16 -10 6 0 7 5 4 10 -3 6 -11 10 -16 10 -6
0 -7 -4 -4 -10z"/>
<path d="M7540 6086 c0 -2 14 -6 30 -8 17 -3 30 -1 30 4 0 4 -13 8 -30 8 -16
0 -30 -2 -30 -4z"/>
<path d="M7648 6063 c7 -3 16 -2 19 1 4 3 -2 6 -13 5 -11 0 -14 -3 -6 -6z"/>
<path d="M7688 6053 c7 -3 16 -2 19 1 4 3 -2 6 -13 5 -11 0 -14 -3 -6 -6z"/>
<path d="M7738 6043 c7 -3 16 -2 19 1 4 3 -2 6 -13 5 -11 0 -14 -3 -6 -6z"/>
<path d="M7778 6033 c7 -3 16 -2 19 1 4 3 -2 6 -13 5 -11 0 -14 -3 -6 -6z"/>
<path d="M7450 6000 c0 -5 5 -10 11 -10 5 0 7 5 4 10 -3 6 -8 10 -11 10 -2 0
-4 -4 -4 -10z"/>
<path d="M7998 5983 c6 -2 18 -2 25 0 6 3 1 5 -13 5 -14 0 -19 -2 -12 -5z"/>
<path d="M8443 5973 c-3 -7 -3 -17 1 -20 3 -4 6 1 6 11 0 13 4 15 19 7 18 -10
31 -6 31 9 0 14 -52 7 -57 -7z"/>
<path d="M8188 5963 c6 -2 18 -2 25 0 6 3 1 5 -13 5 -14 0 -19 -2 -12 -5z"/>
<path d="M7688 5953 c7 -3 16 -2 19 1 4 3 -2 6 -13 5 -11 0 -14 -3 -6 -6z"/>
<path d="M8238 5953 c7 -3 16 -2 19 1 4 3 -2 6 -13 5 -11 0 -14 -3 -6 -6z"/>
<path d="M8467 5949 c7 -7 15 -10 18 -7 3 3 -2 9 -12 12 -14 6 -15 5 -6 -5z"/>
<path d="M8188 5943 c7 -3 16 -2 19 1 4 3 -2 6 -13 5 -11 0 -14 -3 -6 -6z"/>
<path d="M8385 5920 c127 -33 118 -40 -11 -10 -48 11 -91 19 -96 18 -5 -2 47
-17 116 -33 120 -29 125 -30 146 -13 21 17 21 18 2 18 -10 0 -69 11 -130 25
-148 33 -165 30 -27 -5z"/>
<path d="M8228 5933 c6 -2 18 -2 25 0 6 3 1 5 -13 5 -14 0 -19 -2 -12 -5z"/>
<path d="M8098 5863 c7 -3 16 -2 19 1 4 3 -2 6 -13 5 -11 0 -14 -3 -6 -6z"/>
<path d="M8138 5853 c7 -3 16 -2 19 1 4 3 -2 6 -13 5 -11 0 -14 -3 -6 -6z"/>
<path d="M938 5353 c7 -3 16 -2 19 1 4 3 -2 6 -13 5 -11 0 -14 -3 -6 -6z"/>
<path d="M9140 5739 c0 -5 5 -7 10 -4 6 3 10 8 10 11 0 2 -4 4 -10 4 -5 0 -10
-5 -10 -11z"/>
<path d="M8745 5571 c-112 -43 -180 -73 -150 -67 11 2 58 19 105 36 47 17 99
36 117 41 29 9 55 29 36 29 -4 0 -53 -18 -108 -39z"/>
<path d="M5762 4920 c-23 -17 -42 -33 -42 -36 0 -3 20 9 45 27 41 30 51 39 42
39 -2 0 -23 -14 -45 -30z"/>
<path d="M9243 5880 c-34 -14 -28 -21 7 -9 17 6 30 13 30 15 0 6 -12 4 -37 -6z"/>
<path d="M8964 5835 c-18 -14 -18 -14 4 -8 12 3 22 9 22 14 0 12 -3 11 -26 -6z"/>
<path d="M7600 5831 c-16 -31 1 -85 28 -89 28 -4 41 41 21 77 -19 33 -35 37
-49 12z"/>
<path d="M7875 5763 c0 -29 18 -48 35 -38 14 8 13 38 -2 53 -20 20 -34 14 -33
-15z"/>
<path d="M8348 5654 c5 -30 30 -43 42 -23 12 18 -7 49 -29 49 -14 0 -17 -6
-13 -26z"/>
<path d="M9402 5294 c-15 -7 -53 -24 -84 -38 -32 -13 -58 -28 -58 -31 0 -3 9
-1 21 5 40 22 163 69 167 65 3 -2 -6 -9 -19 -14 -13 -5 -57 -23 -98 -40 -40
-17 -77 -28 -82 -25 -5 3 -9 1 -9 -4 0 -5 -15 -15 -32 -23 -18 -7 -60 -26 -93
-42 -33 -15 -70 -30 -82 -33 -18 -3 -122 -45 -275 -111 -21 -9 -38 -22 -38
-30 0 -10 5 -11 18 -4 28 15 92 40 96 38 1 -1 10 4 18 11 9 7 26 15 38 17 13
2 30 11 39 19 9 8 39 21 66 29 60 17 256 98 409 167 37 17 72 30 77 28 14 -5
-20 -48 -36 -48 -8 0 -52 -17 -97 -38 -46 -21 -99 -44 -118 -52 -19 -7 -39
-17 -44 -22 -6 -4 -17 -8 -25 -8 -7 0 -37 -11 -65 -24 -28 -14 -85 -39 -126
-56 -41 -17 -102 -44 -135 -59 -33 -16 -70 -31 -82 -35 -13 -4 -23 -12 -23
-17 0 -12 13 -11 47 3 15 6 30 12 33 13 3 0 14 6 25 11 72 39 470 204 490 204
8 0 15 5 15 11 0 5 5 7 10 4 6 -3 10 -1 10 5 0 6 4 9 8 6 5 -3 36 8 70 24 60
28 62 30 62 68 0 37 -1 38 -36 38 -19 0 -47 -5 -62 -12z"/>
<path d="M9400 5235 c-14 -8 -20 -14 -15 -14 6 0 21 6 35 14 14 8 21 14 15 14
-5 0 -21 -6 -35 -14z"/>
<path d="M9343 5210 c-13 -5 -23 -11 -23 -14 0 -7 40 6 46 15 6 10 6 10 -23
-1z"/>
<path d="M9260 5170 c-8 -5 -10 -10 -5 -10 6 0 17 5 25 10 8 5 11 10 5 10 -5
0 -17 -5 -25 -10z"/>
<path d="M8840 4930 c-8 -5 -10 -10 -5 -10 6 0 17 5 25 10 8 5 11 10 5 10 -5
0 -17 -5 -25 -10z"/>
<path d="M8750 4890 c-8 -5 -10 -10 -5 -10 6 0 17 5 25 10 8 5 11 10 5 10 -5
0 -17 -5 -25 -10z"/>
<path d="M1658 5256 c-28 -21 -33 -61 -9 -85 12 -12 27 -21 35 -21 19 0 46 39
46 66 0 35 -45 60 -72 40z"/>
<path d="M5141 5097 c2 -1 13 -9 24 -17 19 -14 19 -14 6 3 -7 9 -18 17 -24 17
-6 0 -8 -1 -6 -3z"/>
<path d="M962 4780 c0 -14 2 -19 5 -12 2 6 2 18 0 25 -3 6 -5 1 -5 -13z"/>
<path d="M905 4557 c-4 -119 -4 -221 0 -228 5 -7 4 -10 -2 -6 -6 4 -13 -8 -16
-30 -7 -40 -42 -83 -68 -83 -10 0 -27 15 -38 34 -22 35 -46 50 -62 40 -18 -11
-9 -43 19 -64 22 -18 36 -21 75 -17 53 5 78 23 102 74 25 52 44 177 43 273 -1
51 -3 66 -5 38 -4 -50 -18 -64 -25 -25 -3 12 -6 63 -7 112 -2 50 -4 91 -6 93
-1 2 -6 -93 -10 -211z m45 -73 c0 -8 -4 -12 -10 -9 -5 3 -10 10 -10 16 0 5 5
9 10 9 6 0 10 -7 10 -16z"/>
<path d="M4179 4527 c-42 -32 -50 -90 -19 -152 11 -22 17 -30 14 -18 -3 16 1
25 16 33 20 10 21 10 15 -9 -4 -14 0 -23 17 -31 22 -11 22 -10 4 4 -30 24 -12
30 23 8 27 -17 30 -21 16 -32 -9 -7 -14 -27 -13 -49 1 -36 1 -36 5 -4 3 26 18
42 78 87 41 31 76 56 79 56 2 0 19 -19 38 -42 18 -23 27 -39 20 -34 -7 4 1
-14 17 -40 17 -26 28 -51 25 -55 -3 -5 -1 -9 3 -9 5 0 9 -17 9 -38 0 -43 10
-65 26 -56 7 4 6 0 -1 -13 -15 -29 -56 -53 -89 -53 -40 0 -117 54 -160 111
-20 27 -38 46 -40 44 -7 -7 65 -92 102 -120 49 -37 95 -53 166 -57 59 -3 68
-6 99 -38 l34 -35 -6 48 c-8 56 -60 172 -114 254 -116 176 -294 294 -364 240z
m-7 -139 c-9 -9 -12 -7 -12 12 0 19 3 21 12 12 9 -9 9 -15 0 -24z"/>
<path d="M5241 4517 c-13 -21 -12 -21 5 -5 10 10 16 20 13 22 -3 3 -11 -5 -18
-17z"/>
<path d="M5194 4468 l-19 -23 23 19 c12 11 22 21 22 23 0 8 -8 2 -26 -19z"/>
<path d="M4284 4285 c-9 -35 49 -119 101 -147 11 -6 -2 13 -28 42 -45 50 -67
94 -53 107 10 11 50 -16 76 -52 14 -19 32 -37 42 -40 9 -3 21 -19 27 -35 14
-40 22 -38 10 2 -5 18 -9 33 -9 34 0 11 -69 84 -93 97 -44 24 -65 22 -73 -8z
m126 -60 c13 -14 21 -25 18 -25 -2 0 -15 11 -28 25 -13 14 -21 25 -18 25 2 0
15 -11 28 -25z"/>
<path d="M4895 4270 c-4 -11 -11 -18 -16 -15 -5 4 -9 -3 -9 -15 0 -20 2 -19
25 8 27 32 31 42 16 42 -5 0 -13 -9 -16 -20z"/>
<path d="M4310 4126 c0 -2 8 -10 18 -17 15 -13 16 -12 3 4 -13 16 -21 21 -21
13z"/>
<path d="M4605 4020 c3 -5 8 -10 11 -10 2 0 4 5 4 10 0 6 -5 10 -11 10 -5 0
-7 -4 -4 -10z"/>
<path d="M1597 4933 c-2 -4 -7 -21 -10 -38 -6 -30 -6 -30 9 4 8 18 13 35 11
38 -3 2 -7 1 -10 -4z"/>
<path d="M1530 4919 c0 -3 -23 -57 -51 -119 -28 -63 -68 -158 -89 -210 -21
-52 -54 -132 -74 -178 -20 -46 -36 -87 -36 -92 0 -10 81 -43 88 -35 6 6 42
101 146 390 4 11 12 31 17 44 5 13 7 26 4 29 -3 3 -5 1 -5 -4 0 -5 -9 -20 -20
-34 -12 -15 -18 -18 -14 -7 4 10 1 17 -6 17 -8 0 -11 -12 -7 -37 3 -21 3 -30
1 -20 -3 9 -10 17 -15 17 -12 0 -11 25 2 71 7 21 16 36 20 33 5 -3 6 3 2 12
-5 13 -3 15 7 9 9 -5 11 -4 6 3 -4 6 3 32 14 58 12 25 19 49 16 52 -3 3 -6 3
-6 1z"/>
<path d="M1541 4783 c-10 -26 -10 -27 4 -9 8 11 15 23 15 28 0 15 -7 8 -19
-19z"/>
<path d="M1494 4744 c3 -8 6 -18 6 -20 0 -3 5 -2 10 1 15 9 12 22 -6 29 -12 5
-15 2 -10 -10z"/>
<path d="M1860 4875 c0 -5 5 -17 10 -25 5 -8 10 -10 10 -5 0 6 -5 17 -10 25
-5 8 -10 11 -10 5z"/>
<path d="M1832 4750 c11 -28 23 -49 25 -47 4 5 -34 97 -41 97 -3 0 5 -23 16
-50z"/>
<path d="M8675 4280 c3 -5 -2 -10 -12 -10 -23 0 -50 -17 -41 -25 9 -10 70 24
63 35 -4 6 -8 10 -11 10 -3 0 -2 -4 1 -10z"/>
<path d="M2380 4408 c-11 -18 -23 -43 -26 -56 -7 -24 10 -52 31 -52 17 0 41
30 48 60 6 23 5 24 -8 6 -8 -11 -19 -15 -27 -10 -9 5 -8 2 2 -11 9 -11 10 -16
3 -11 -22 13 -32 41 -21 57 8 11 9 11 4 -3 -3 -11 0 -18 7 -18 7 0 13 9 13 19
0 11 -4 17 -8 15 -12 -8 -9 11 4 24 7 7 9 12 5 12 -4 0 -16 -15 -27 -32z"/>
<path d="M2747 4359 c7 -7 15 -10 18 -7 3 3 -2 9 -12 12 -14 6 -15 5 -6 -5z"/>
<path d="M2789 4333 c-13 -16 -12 -17 4 -4 16 13 21 21 13 21 -2 0 -10 -8 -17
-17z"/>
<path d="M9175 4620 c-39 -26 -25 -26 17 0 18 11 29 20 23 20 -5 0 -23 -9 -40
-20z"/>
<path d="M8830 4590 c-13 -9 -13 -10 0 -10 8 0 22 5 30 10 13 9 13 10 0 10 -8
0 -22 -5 -30 -10z"/>
<path d="M8643 4510 c-34 -14 -28 -21 7 -9 17 6 30 13 30 15 0 6 -12 4 -37 -6z"/>
<path d="M8715 4479 c-11 -17 -2 -18 19 -3 17 12 17 14 4 14 -9 0 -20 -5 -23
-11z"/>
<path d="M8837 4471 c-45 -29 -45 -35 1 -12 23 12 42 24 42 26 0 9 -14 4 -43
-14z"/>
<path d="M8974 4474 c-18 -14 -18 -15 4 -4 12 6 22 13 22 15 0 8 -5 6 -26 -11z"/>
<path d="M8620 4431 c0 -5 9 -7 20 -4 11 3 20 7 20 9 0 2 -9 4 -20 4 -11 0
-20 -4 -20 -9z"/>
<path d="M8653 3663 c9 -2 25 -2 35 0 9 3 1 5 -18 5 -19 0 -27 -2 -17 -5z"/>
<path d="M8758 3653 c12 -2 30 -2 40 0 9 3 -1 5 -23 4 -22 0 -30 -2 -17 -4z"/>
<path d="M8860 3642 c46 -16 95 -23 85 -13 -6 5 -32 12 -60 15 -33 4 -41 3
-25 -2z"/>
<path d="M9000 3610 c20 -13 33 -13 25 0 -3 6 -14 10 -23 10 -15 0 -15 -2 -2
-10z"/>
<path d="M9046 3595 c3 -7 14 -11 25 -8 10 3 19 0 19 -6 0 -6 -8 -11 -17 -12
-15 0 -15 -2 2 -9 17 -7 17 -9 3 -9 -10 -1 -18 -8 -18 -17 0 -8 -4 -13 -10 -9
-5 3 -18 -3 -30 -15 -28 -28 -25 -38 3 -12 13 12 26 19 30 16 4 -4 -1 -12 -10
-19 -9 -7 -17 -26 -18 -42 -1 -16 -11 -39 -24 -52 -21 -21 -24 -21 -47 -6 -27
18 -32 10 -8 -16 9 -10 22 -15 29 -13 7 3 16 0 21 -7 4 -7 3 -10 -4 -5 -11 6
-38 -31 -34 -46 3 -12 -16 -10 -23 2 -3 6 -11 10 -18 10 -6 0 0 -8 13 -17 l25
-17 -60 -13 -60 -12 65 5 c201 16 403 95 426 166 13 41 -53 96 -169 140 -77
30 -116 38 -111 23z m81 -31 c-3 -3 -12 -4 -19 -1 -8 3 -5 6 6 6 11 1 17 -2
13 -5z m-42 -44 c3 -5 1 -10 -4 -10 -6 0 -11 5 -11 10 0 6 2 10 4 10 3 0 8 -4
11 -10z m-70 -220 c-3 -5 -16 -10 -28 -9 -20 1 -20 2 3 9 14 4 26 8 28 9 2 1
0 -3 -3 -9z"/>
<path d="M8954 3444 c-18 -14 -18 -15 4 -4 12 6 22 13 22 15 0 8 -5 6 -26 -11z"/>
<path d="M8995 3429 c-4 -6 -13 -8 -21 -5 -7 3 -16 1 -19 -3 -11 -19 27 -20
47 -1 12 11 17 20 10 20 -6 0 -14 -5 -17 -11z"/>
<path d="M8905 3390 c3 -5 8 -10 11 -10 2 0 4 5 4 10 0 6 -5 10 -11 10 -5 0
-7 -4 -4 -10z"/>
<path d="M7579 3357 c20 -26 128 -87 165 -94 19 -3 -2 11 -54 37 -47 23 -94
49 -105 58 -19 16 -19 16 -6 -1z"/>
<path d="M8936 3355 c13 -10 15 -14 5 -15 -8 0 -12 -3 -8 -6 3 -3 11 -3 17 1
13 8 -5 35 -23 35 -6 0 -2 -7 9 -15z"/>
<path d="M8904 3352 c3 -5 0 -13 -6 -15 -9 -4 -10 -6 -1 -6 17 -1 25 16 12 25
-7 4 -9 3 -5 -4z"/>
<path d="M7660 3270 c0 -5 4 -10 9 -10 5 0 7 -9 4 -20 -3 -11 -8 -18 -12 -15
-4 2 -8 -15 -10 -37 -1 -23 -4 -45 -7 -50 -3 -4 1 -8 8 -8 9 0 9 -3 2 -8 -17
-12 -23 -39 -11 -51 8 -8 8 -17 -1 -33 -15 -31 -21 -89 -8 -81 5 4 7 0 3 -10
-10 -26 43 -58 79 -47 16 4 25 9 21 9 -4 1 -3 10 3 22 8 14 8 24 1 32 -6 8 -6
18 -1 27 6 9 5 18 -3 23 -9 6 -9 10 -1 13 8 3 9 16 4 39 -5 23 -4 36 4 39 6 2
7 5 1 5 -5 1 -9 20 -9 43 1 24 -3 49 -10 57 -8 11 -8 13 1 8 8 -5 11 0 10 14
-1 13 -13 26 -35 35 -41 17 -42 17 -42 4z m17 -350 c14 -11 22 -20 17 -20 -12
1 -61 39 -51 40 5 0 20 -9 34 -20z"/>
<path d="M8670 3250 c-54 -7 -54 -7 -10 -7 25 0 74 3 110 7 l65 7 -55 0 c-30
0 -80 -3 -110 -7z"/>
<path d="M7625 3050 c3 -5 8 -10 11 -10 2 0 4 5 4 10 0 6 -5 10 -11 10 -5 0
-7 -4 -4 -10z"/>
<path d="M7570 2782 c0 -6 18 -26 40 -43 24 -19 36 -35 30 -39 -6 -4 -9 -18
-6 -32 2 -15 -3 -36 -12 -49 -8 -12 -10 -19 -4 -15 15 9 16 -6 1 -21 -14 -14
-18 -73 -5 -73 6 0 5 -4 -2 -8 -8 -6 -12 -25 -10 -53 2 -31 -1 -43 -9 -41 -24
4 -13 -18 12 -28 28 -11 35 -23 8 -14 -29 10 38 -44 90 -71 31 -17 56 -24 69
-19 16 5 18 8 7 15 -12 8 -12 11 1 19 8 5 11 10 5 10 -10 0 -18 61 -19 156 -1
41 -4 50 -16 46 -12 -4 -13 -2 -2 9 13 14 17 33 5 26 -5 -3 -8 17 -9 45 0 31
-6 53 -15 60 -11 8 -10 9 4 4 66 -21 60 -12 -13 24 -47 23 -100 55 -117 72
-18 18 -33 27 -33 20z"/>
<path d="M7570 2019 c1 -230 15 -262 145 -326 56 -28 175 -66 182 -59 4 3 1 6
-7 6 -9 0 -10 4 -2 13 6 7 7 19 3 26 -7 10 -12 8 -24 -9 -9 -13 -17 -17 -22
-11 -3 6 0 11 7 12 7 0 4 4 -7 9 -18 8 -18 9 5 10 l25 1 -23 12 c-17 10 -20
15 -10 25 6 6 8 15 4 19 -4 4 -12 1 -17 -7 -8 -11 -8 -7 -3 15 11 42 7 99 -7
104 -8 2 -7 6 2 13 11 7 11 11 2 15 -8 3 -11 14 -7 29 5 18 2 24 -11 24 -14 0
-15 3 -5 15 10 12 10 15 -1 15 -11 0 -11 2 1 10 12 8 12 10 1 10 -11 0 -11 3
0 17 10 11 10 14 2 9 -8 -4 -13 -1 -13 8 0 9 -5 16 -12 16 -6 0 -9 2 -7 5 3 2
27 -2 54 -10 78 -24 87 -16 10 9 -90 29 -185 78 -230 117 l-35 31 0 -173z m17
44 c-2 -21 -4 -6 -4 32 0 39 2 55 4 38 2 -18 2 -50 0 -70z m223 -137 c0 -3 -4
-8 -10 -11 -5 -3 -10 -1 -10 4 0 6 5 11 10 11 6 0 10 -2 10 -4z"/>
<path d="M8228 1963 c7 -3 16 -2 19 1 4 3 -2 6 -13 5 -11 0 -14 -3 -6 -6z"/>
<path d="M1120 3440 c-9 -6 -10 -10 -3 -10 6 0 15 5 18 10 8 12 4 12 -15 0z"/>
<path d="M2495 3290 c21 -22 41 -40 44 -40 3 0 -13 18 -34 40 -21 22 -41 40
-44 40 -3 0 13 -18 34 -40z"/>
<path d="M2420 3266 c0 -2 8 -10 18 -17 15 -13 16 -12 3 4 -13 16 -21 21 -21
13z"/>
<path d="M2469 3227 c15 -19 71 -61 71 -54 0 2 -19 19 -42 37 -24 19 -37 26
-29 17z"/>
<path d="M2397 3169 c7 -7 15 -10 18 -7 3 3 -2 9 -12 12 -14 6 -15 5 -6 -5z"/>
<path d="M2427 3079 c7 -7 15 -10 18 -7 3 3 -2 9 -12 12 -14 6 -15 5 -6 -5z"/>
<path d="M2440 2996 c0 -2 7 -7 16 -10 8 -3 12 -2 9 4 -6 10 -25 14 -25 6z"/>
<path d="M2420 2937 c0 -3 15 -10 32 -16 18 -6 28 -7 23 -2 -12 10 -55 25 -55
18z"/>
<path d="M2400 2741 c8 -5 31 -11 50 -15 24 -4 28 -3 15 2 -31 14 -83 24 -65
13z"/>
<path d="M2520 2629 c0 -5 5 -7 10 -4 6 3 10 8 10 11 0 2 -4 4 -10 4 -5 0 -10
-5 -10 -11z"/>
<path d="M2425 2606 c28 -7 52 -11 54 -9 9 6 -5 11 -54 16 l-50 6 50 -13z"/>
<path d="M2385 2531 c33 -13 111 -23 100 -13 -5 5 -35 12 -65 15 -30 3 -46 2
-35 -2z"/>
<path d="M2428 2463 c7 -3 16 -2 19 1 4 3 -2 6 -13 5 -11 0 -14 -3 -6 -6z"/>
<path d="M2436 2401 c5 -5 27 -6 49 -1 l40 8 -49 1 c-30 1 -46 -3 -40 -8z"/>
<path d="M2494 2355 c-18 -13 -18 -14 4 -8 12 3 25 9 28 14 8 14 -10 11 -32
-6z"/>
<path d="M2448 2343 c7 -3 16 -2 19 1 4 3 -2 6 -13 5 -11 0 -14 -3 -6 -6z"/>
<path d="M2500 2310 c0 -5 5 -10 10 -10 6 0 10 5 10 10 0 6 -4 10 -10 10 -5 0
-10 -4 -10 -10z"/>
<path d="M2456 2272 c-2 -4 13 -6 35 -4 21 2 39 6 39 8 0 7 -69 4 -74 -4z"/>
<path d="M2500 2226 c0 -2 14 -6 30 -8 17 -3 30 -1 30 4 0 4 -13 8 -30 8 -16
0 -30 -2 -30 -4z"/>
<path d="M2495 2180 c-4 -7 2 -9 21 -4 18 5 25 3 20 -4 -4 -6 2 -8 16 -4 14 3
19 1 14 -6 -3 -6 -19 -13 -35 -17 l-29 -6 25 -26 c22 -21 29 -23 48 -13 20 11
21 15 10 47 -11 31 -18 37 -48 40 -20 2 -39 -1 -42 -7z m77 -47 c-6 -2 -10 -9
-6 -14 3 -5 -2 -9 -10 -9 -9 0 -16 4 -16 9 0 10 18 19 35 19 6 0 4 -2 -3 -5z"/>
<path d="M1756 2819 c-15 -18 -26 -43 -26 -60 0 -35 31 -69 64 -69 30 0 86 45
86 68 -1 12 -5 9 -15 -9 -34 -64 -115 -54 -115 14 0 44 18 67 60 77 l35 8 -32
1 c-23 1 -38 -7 -57 -30z"/>
<path d="M1783 2808 c-19 -24 -22 -46 -9 -63 10 -14 17 -15 34 -6 26 14 19 38
-11 44 l-22 4 23 8 c12 4 22 11 22 16 0 13 -26 11 -37 -3z"/>
<path d="M1950 2446 c0 -2 8 -10 18 -17 15 -13 16 -12 3 4 -13 16 -21 21 -21
13z"/>
<path d="M1049 1943 l-34 -38 38 34 c34 33 42 41 34 41 -2 0 -19 -17 -38 -37z"/>
<path d="M3777 2785 c-131 -43 -159 -56 -116 -53 13 0 41 -4 61 -10 21 -5 37
-7 37 -4 -1 4 -1 14 0 22 1 13 2 13 12 0 8 -11 12 -12 16 -3 3 10 10 10 25 2
15 -8 19 -8 14 0 -4 6 -2 11 3 11 6 0 11 5 11 11 0 8 -4 8 -14 0 -10 -9 -15
-8 -20 4 -5 15 1 17 52 18 12 1 22 6 22 12 0 7 10 17 23 23 43 21 1 10 -126
-33z"/>
<path d="M3853 2723 c0 -9 4 -10 14 -2 7 6 13 12 13 14 0 1 -6 2 -13 2 -8 0
-14 -6 -14 -14z"/>
<path d="M3586 2679 c-33 -51 -92 -131 -154 -208 -23 -29 -40 -56 -38 -59 3
-2 26 8 51 23 26 15 44 29 41 33 -4 3 -12 0 -18 -6 -18 -18 -33 -15 -17 4 7 9
21 13 34 10 21 -5 111 45 99 56 -3 4 -17 -3 -30 -15 -21 -18 -54 -32 -54 -22
0 2 16 13 35 25 21 13 32 27 29 33 -5 9 -4 9 6 1 9 -9 22 -5 55 17 24 16 51
29 61 30 11 0 14 3 7 6 -7 2 -13 11 -13 19 0 8 -8 14 -17 15 -10 0 -13 3 -6 6
8 3 9 8 3 16 -6 7 -18 23 -28 36 l-18 23 -28 -43z m44 17 c0 -2 -7 -9 -15 -16
-13 -11 -14 -10 -9 4 5 14 24 23 24 12z"/>
<path d="M3832 2460 c14 -22 24 -19 15 5 -4 8 -11 15 -17 15 -6 0 -6 -7 2 -20z"/>
<path d="M6805 2799 c-93 -31 -160 -58 -148 -58 11 -1 48 -9 80 -19 45 -14 60
-16 60 -6 0 6 -7 10 -16 7 -11 -3 -10 0 4 11 11 9 26 14 34 11 10 -4 9 1 -5
16 -10 12 -13 19 -6 15 6 -4 12 -3 12 3 0 5 14 8 30 6 17 -2 28 0 25 5 -9 15
12 20 24 6 10 -11 5 -20 -24 -41 -19 -15 -35 -31 -35 -36 0 -5 27 17 60 47 33
31 57 60 54 65 -3 5 2 9 10 9 9 0 16 5 16 10 0 6 -1 9 -2 8 -2 0 -79 -27 -173
-59z m128 13 c-12 -12 -20 -14 -25 -8 -4 6 0 14 10 18 29 11 33 9 15 -10z"/>
<path d="M6831 2773 c-1 -17 16 -25 25 -12 4 7 3 9 -4 5 -5 -3 -13 0 -15 6 -4
9 -6 10 -6 1z"/>
<path d="M6532 2608 c-44 -62 -94 -131 -111 -152 -17 -22 -29 -41 -27 -43 8
-8 155 90 149 100 -3 6 -1 7 5 3 6 -4 25 0 43 9 17 9 37 14 45 11 9 -3 12 -1
9 4 -3 6 -14 10 -23 11 -11 0 -12 2 -4 6 6 2 9 10 6 15 -5 7 -2 8 5 4 7 -5 25
-3 41 4 l29 12 -36 54 c-19 29 -39 51 -44 48 -5 -3 -6 2 -3 10 14 36 -9 10
-84 -96z m-62 -132 c0 -2 -8 -10 -17 -17 -16 -13 -17 -12 -4 4 13 16 21 21 21
13z"/>
<path d="M6762 2548 c9 -13 30 -47 47 -75 32 -52 50 -70 36 -35 -4 9 -7 28 -7
42 1 21 -1 22 -7 6 -6 -16 -12 -11 -40 33 -18 28 -35 51 -38 51 -3 0 1 -10 9
-22z"/>
<path d="M6821 2524 c0 -11 3 -14 6 -6 3 7 2 16 -1 19 -3 4 -6 -2 -5 -13z"/>
<path d="M1252 2950 c0 -14 2 -19 5 -12 2 6 2 18 0 25 -3 6 -5 1 -5 -13z"/>
<path d="M4707 2466 c-9 -7 -17 -17 -17 -21 0 -13 -42 -45 -51 -39 -5 3 -6 -2
-3 -10 5 -12 16 -6 52 29 44 42 56 68 19 41z"/>
<path d="M4523 2406 c-67 -23 -124 -44 -127 -47 -4 -3 25 -9 63 -13 38 -3 78
-9 88 -12 15 -5 15 -4 3 5 -13 9 -13 11 3 11 9 0 17 4 17 9 0 4 -10 7 -22 6
-13 -1 -15 0 -5 2 9 2 15 9 12 14 -4 5 -3 9 2 10 26 2 47 9 52 16 3 5 22 16
41 26 60 28 3 16 -127 -27z"/>
<path d="M4252 2182 c-61 -81 -108 -149 -106 -151 7 -7 163 96 156 104 -4 5
-2 5 4 2 14 -8 69 29 55 37 -6 4 -11 11 -11 15 0 11 44 8 52 -4 4 -5 10 -2 14
8 5 14 9 15 20 6 24 -20 15 -1 -30 65 l-44 65 -110 -147z"/>
<path d="M4571 2144 c0 -11 3 -14 6 -6 3 7 2 16 -1 19 -3 4 -6 -2 -5 -13z"/>
<path d="M4574 2065 c12 -38 32 -49 22 -12 -3 12 -6 28 -6 35 0 6 -6 12 -14
12 -10 0 -11 -7 -2 -35z"/>
<path d="M6200 2466 c-14 -7 -85 -33 -159 -57 l-133 -44 53 -13 c82 -19 103
-21 118 -8 12 9 13 7 7 -9 -4 -11 29 16 74 60 44 44 80 81 80 82 0 6 -16 2
-40 -11z m-27 -47 c-8 -8 -13 -7 -18 2 -5 8 -4 10 3 5 7 -4 12 -2 12 5 0 7 3
9 7 6 4 -4 2 -12 -4 -18z m-63 -63 c-9 -8 -14 -8 -17 2 -4 10 -8 10 -21 0 -15
-12 -16 -11 -3 4 7 10 17 15 22 12 5 -3 12 3 16 13 7 17 8 17 11 -1 2 -10 -2
-23 -8 -30z m40 40 c0 -3 -4 -8 -10 -11 -5 -3 -10 -1 -10 4 0 6 5 11 10 11 6
0 10 -2 10 -4z"/>
<path d="M5839 2283 c-18 -27 -68 -94 -111 -150 -44 -57 -76 -103 -71 -103 4
0 26 11 48 25 22 13 57 33 78 45 20 11 37 23 37 26 0 3 -5 2 -12 -2 -7 -4 -8
-3 -4 4 4 6 14 8 23 5 10 -4 14 -2 9 5 -3 6 -1 14 5 18 8 5 9 3 4 -6 -6 -10
-4 -11 11 -5 10 4 26 8 35 9 10 0 14 7 11 18 -6 22 26 37 39 17 7 -12 9 -12 9
0 0 11 3 11 15 1 8 -7 15 -9 15 -5 0 12 -92 145 -101 145 -4 0 -23 -21 -40
-47z"/>
<path d="M6092 2105 c0 -11 4 -31 8 -45 6 -20 8 -21 8 -5 0 11 -4 31 -8 45 -6
20 -8 21 -8 5z"/>
<path d="M5360 2158 c-153 -53 -185 -67 -146 -64 27 2 51 8 55 13 3 5 29 16
56 23 28 8 84 27 125 43 41 16 84 31 94 32 11 1 22 7 24 13 5 16 13 18 -208
-60z"/>
<path d="M4994 1888 c-64 -90 -125 -173 -136 -184 -11 -12 -16 -24 -11 -27 4
-3 22 15 38 39 17 24 34 44 38 44 5 0 5 -6 1 -12 -4 -8 -3 -10 2 -5 5 5 9 12
9 15 2 20 18 52 26 52 5 0 9 6 9 13 0 16 49 76 50 60 0 -7 -4 -13 -10 -13 -15
0 -12 -17 3 -23 10 -4 13 4 12 25 -1 19 5 38 17 50 10 10 16 18 13 18 -3 0 11
25 30 55 65 101 28 57 -91 -107z"/>
<path d="M5126 1993 c-6 -14 -5 -15 5 -6 7 7 10 15 7 18 -3 3 -9 -2 -12 -12z"/>
<path d="M5150 1981 c0 -5 7 -15 17 -22 15 -13 15 -12 4 9 -12 23 -21 28 -21
13z"/>
<path d="M5080 1941 c0 -6 4 -13 10 -16 6 -3 7 1 4 9 -7 18 -14 21 -14 7z"/>
</g>
</svg>
