<?xml version="1.0" standalone="no"?>
<!DOCTYPE svg PUBLIC "-//W3C//DTD SVG 20010904//EN"
 "http://www.w3.org/TR/2001/REC-SVG-20010904/DTD/svg10.dtd">
<svg version="1.0" xmlns="http://www.w3.org/2000/svg"
 width="716.000000pt" height="716.000000pt" viewBox="0 0 716.000000 716.000000"
 preserveAspectRatio="xMidYMid meet">

<g transform="translate(0.000000,716.000000) scale(0.100000,-0.100000)"
fill="#000000" stroke="none">
<path d="M6129 6170 c-20 -10 -48 -35 -62 -54 -15 -20 -38 -51 -52 -70 l-25
-33 155 -92 c86 -50 159 -91 163 -91 21 0 81 121 82 165 2 135 -147 235 -261
175z"/>
<path d="M4194 6149 c-57 -21 -149 -109 -159 -151 -5 -20 4 -35 54 -87 57 -58
61 -60 61 -35 0 48 23 105 53 130 l29 24 702 0 703 0 34 -23 c46 -31 75 -78
84 -133 l7 -47 50 77 c42 65 49 81 40 100 -17 38 -63 86 -108 112 -91 54 -95
54 -824 53 -647 0 -677 -1 -726 -20z"/>
<path d="M1976 6134 c-11 -28 -7 -35 39 -80 36 -35 45 -50 45 -78 0 -19 -29
-108 -64 -198 -64 -161 -292 -717 -316 -770 -12 -26 -17 -28 -74 -28 -81 0
-216 -23 -296 -50 -275 -93 -452 -418 -370 -682 24 -78 69 -133 141 -173 46
-26 65 -30 129 -30 101 0 165 31 253 124 78 83 123 170 227 434 l73 188 31 -6
c61 -13 322 -85 390 -108 39 -13 73 -30 77 -38 9 -18 29 -243 29 -325 0 -70
-10 -84 -93 -124 -47 -23 -52 -29 -55 -61 l-3 -36 107 -6 c178 -11 1118 -8
1197 4 218 32 413 126 551 265 111 113 198 270 242 439 22 83 27 130 31 280 6
193 -8 299 -57 445 -106 314 -367 546 -687 611 -82 17 -133 19 -465 17 l-373
-3 0 -35 c0 -32 4 -36 56 -61 64 -31 94 -64 109 -120 7 -25 10 -312 8 -841 -3
-787 -3 -804 -23 -838 -38 -63 -104 -56 -129 14 -9 23 -27 151 -41 286 -30
294 -40 393 -59 570 -8 74 -20 189 -26 255 -6 66 -15 161 -20 210 -5 50 -16
178 -25 285 -9 107 -19 213 -23 235 l-7 40 -261 3 c-232 2 -262 1 -268 -14z
m1414 -138 c134 -29 247 -104 319 -212 92 -140 161 -419 161 -654 0 -129 -26
-344 -54 -445 -36 -130 -104 -261 -168 -324 -85 -84 -204 -131 -335 -131 l-43
0 0 883 c0 486 3 887 7 890 10 10 41 8 113 -7z m-1221 -426 c11 -131 46 -479
61 -619 6 -52 8 -96 5 -99 -3 -3 -42 6 -88 20 -45 14 -133 38 -195 53 -92 23
-112 31 -107 44 34 97 302 728 307 723 3 -4 11 -59 17 -122z m-579 -764 c0 -9
-111 -270 -148 -346 -49 -101 -90 -153 -143 -180 -52 -27 -91 -25 -128 6 -40
33 -55 90 -48 184 6 92 32 154 88 215 78 84 173 123 307 124 39 1 72 -1 72 -3z"/>
<path d="M5877 5833 c-35 -54 -110 -171 -167 -260 -58 -90 -130 -202 -161
-250 -31 -49 -122 -191 -204 -318 -81 -126 -164 -257 -185 -290 -31 -48 -49
-99 -91 -260 -55 -208 -67 -297 -39 -303 9 -1 103 64 210 146 222 169 180 117
471 580 57 90 485 740 496 751 2 3 14 -6 27 -20 l24 -24 -95 -145 c-52 -80
-141 -217 -199 -304 -58 -88 -104 -169 -104 -182 0 -27 32 -64 54 -64 8 0 26
10 40 23 34 31 397 593 415 644 22 59 2 116 -54 156 -48 35 -357 217 -368 217
-4 0 -36 -44 -70 -97z m-592 -1268 c47 -30 85 -59 85 -63 0 -5 -6 -17 -14 -27
-13 -19 -18 -17 -100 38 -82 55 -85 58 -74 82 6 14 13 25 14 25 2 0 42 -25 89
-55z"/>
<path d="M4442 5648 c-25 -12 -37 -46 -28 -76 13 -41 41 -43 534 -40 423 3
473 5 488 20 24 23 21 68 -6 90 -21 17 -53 18 -494 17 -319 0 -478 -4 -494
-11z"/>
<path d="M4436 5255 c-28 -14 -35 -74 -10 -92 14 -10 102 -13 394 -13 408 0
413 1 413 54 0 57 4 56 -403 59 -239 1 -381 -2 -394 -8z"/>
<path d="M4426 4854 c-9 -8 -16 -29 -16 -45 0 -52 35 -59 300 -59 l231 0 24
25 c30 29 31 49 5 75 -19 19 -33 20 -274 20 -218 0 -257 -2 -270 -16z"/>
<path d="M5778 4812 c-23 -36 -23 -45 -28 -392 l-5 -355 -320 -5 -320 -5 -56
-27 c-31 -16 -64 -37 -74 -48 -17 -19 -18 -19 -55 13 -69 59 -110 67 -341 67
-236 0 -302 -13 -384 -75 l-45 -35 0 215 c0 118 -2 215 -4 215 -2 0 -34 -30
-70 -67 l-66 -68 0 -223 0 -223 25 -24 c13 -14 34 -25 47 -25 13 0 60 25 106
54 114 75 167 86 417 86 190 0 199 -1 263 -27 79 -32 84 -32 166 1 l64 26 327
0 c315 0 329 1 365 21 21 12 48 40 61 63 24 41 24 41 27 436 l3 395 -41 22
-40 21 -22 -36z"/>
<path d="M1070 3160 l0 -550 105 0 106 0 -3 396 -3 396 21 -49 c12 -26 84
-204 160 -395 l139 -347 83 -1 82 0 15 33 c8 17 46 109 84 202 137 339 224
550 230 562 3 6 5 -170 3 -393 l-3 -404 111 0 110 0 0 550 0 550 -164 0 -164
0 -16 -41 c-41 -103 -188 -508 -231 -639 -37 -110 -50 -140 -56 -125 -5 11
-43 115 -85 230 -67 185 -160 424 -208 538 l-16 37 -150 0 -150 0 0 -550z"/>
<path d="M4160 3505 l0 -85 -65 0 -66 0 3 -87 3 -88 58 -3 57 -3 0 -197 c0
-225 12 -302 55 -357 55 -72 184 -107 308 -82 l37 8 0 83 0 83 -56 -5 c-63 -5
-96 8 -113 45 -7 15 -11 99 -11 223 l0 200 90 0 90 0 0 90 0 90 -90 0 -90 0 0
85 0 85 -105 0 -105 0 0 -85z"/>
<path d="M4910 3424 c-177 -48 -290 -209 -290 -414 0 -205 110 -357 295 -406
146 -39 323 9 416 114 34 40 67 107 57 118 -10 9 -193 20 -197 11 -10 -27 -67
-77 -98 -88 -56 -18 -135 -7 -177 25 -42 32 -63 69 -75 131 l-8 45 281 2 281
3 3 58 c14 279 -221 473 -488 401z m205 -173 c36 -20 75 -85 75 -123 l0 -28
-176 0 -176 0 7 33 c26 122 162 181 270 118z"/>
<path d="M2680 3416 c-128 -37 -220 -129 -220 -221 0 -24 2 -25 69 -25 38 0
81 -2 97 -6 26 -5 31 -1 46 36 20 48 62 70 133 70 84 0 135 -47 135 -124 0
-39 5 -36 -130 -56 -185 -26 -220 -34 -266 -59 -70 -38 -107 -95 -112 -175 -9
-144 55 -225 200 -255 105 -22 207 8 279 81 23 24 40 38 36 32 -4 -7 -4 -33
-1 -58 l7 -46 99 0 99 0 -3 313 c-3 283 -5 316 -22 350 -27 54 -72 96 -136
126 -46 21 -72 26 -160 28 -64 1 -123 -3 -150 -11z m260 -483 c-1 -62 -29
-124 -71 -154 -25 -18 -50 -25 -101 -27 -64 -4 -69 -3 -98 26 -24 24 -30 39
-30 72 0 70 32 89 205 119 96 17 95 17 95 -36z"/>
<path d="M3467 3407 c-114 -40 -176 -119 -177 -225 0 -89 38 -155 113 -193 20
-11 95 -33 165 -50 71 -16 143 -39 161 -50 29 -18 32 -23 29 -61 -3 -36 -9
-46 -38 -66 -30 -20 -44 -23 -102 -20 -84 5 -123 29 -142 91 -5 15 -19 17
-101 17 -109 0 -116 -5 -95 -73 8 -28 30 -59 63 -92 63 -60 133 -86 254 -93
93 -5 189 18 258 63 110 72 146 225 76 322 -36 49 -112 85 -246 114 -118 25
-179 54 -183 88 -10 65 31 101 115 101 59 0 92 -16 118 -57 l20 -32 98 -1 99
0 -7 33 c-18 82 -69 142 -154 180 -35 16 -72 22 -151 24 -90 3 -115 0 -173
-20z"/>
<path d="M5865 3411 c-49 -23 -88 -63 -112 -116 l-18 -40 -3 83 -3 82 -104 0
-105 0 0 -405 0 -405 110 0 110 0 0 233 c0 203 3 237 19 272 34 76 103 115
204 115 l47 0 0 63 c0 34 -3 79 -6 100 -7 37 -7 37 -53 37 -25 0 -64 -9 -86
-19z"/>
<path d="M1385 2406 c-171 -45 -278 -145 -331 -309 -32 -102 -37 -264 -10
-366 37 -142 122 -252 242 -311 72 -35 207 -63 263 -55 136 22 224 60 297 127
47 44 101 141 111 201 l6 37 -106 0 -105 0 -7 -29 c-10 -46 -60 -108 -107
-133 -34 -18 -59 -23 -124 -23 -72 0 -86 3 -130 30 -99 62 -152 195 -141 359
10 161 76 264 191 300 141 45 279 -25 311 -156 l7 -28 109 0 109 0 -6 28 c-36
150 -126 257 -264 313 -68 27 -238 36 -315 15z"/>
<path d="M2090 2083 c0 -175 3 -402 7 -505 l6 -188 94 0 93 0 0 505 0 505
-100 0 -100 0 0 -317z"/>
<path d="M4940 2149 c-116 -23 -219 -109 -261 -217 -30 -76 -33 -251 -6 -327
30 -86 83 -145 169 -189 74 -38 80 -39 176 -39 90 0 106 3 164 30 73 34 128
84 158 143 11 22 20 41 20 44 0 5 -42 11 -131 21 -54 6 -57 5 -68 -22 -18 -42
-58 -66 -117 -71 -67 -6 -95 1 -134 34 -37 32 -55 65 -65 122 l-7 42 262 0
262 0 -4 94 c-3 84 -8 103 -38 162 -55 108 -147 166 -280 178 -30 2 -75 1
-100 -5z m147 -159 c49 -22 83 -70 83 -117 l0 -33 -160 0 c-174 0 -171 -1
-149 57 14 37 57 82 94 99 42 18 83 17 132 -6z"/>
<path d="M2625 2130 c-99 -32 -184 -122 -185 -197 0 -18 6 -23 28 -23 15 0 56
-3 92 -6 l65 -6 10 33 c14 49 86 84 152 74 66 -10 103 -49 103 -108 l0 -45
-117 -16 c-238 -34 -304 -61 -343 -140 -42 -88 -18 -217 51 -268 49 -36 92
-48 178 -48 91 0 159 27 209 84 l32 37 0 -56 0 -55 96 0 96 0 -4 288 c-3 274
-4 289 -25 328 -30 57 -91 107 -156 127 -73 23 -204 22 -282 -3z m265 -450 c0
-63 -19 -102 -67 -135 -62 -42 -188 -29 -207 20 -3 9 -6 29 -6 45 0 42 9 59
42 76 32 16 150 41 206 43 l32 1 0 -50z"/>
<path d="M3366 2125 c-105 -43 -146 -101 -146 -207 0 -127 59 -177 258 -222
137 -31 164 -43 176 -78 23 -65 -45 -115 -143 -105 -60 6 -99 29 -119 70 -13
26 -16 27 -103 27 -83 0 -89 -1 -89 -20 0 -32 28 -92 58 -123 113 -119 392
-123 515 -8 75 69 94 184 44 260 -35 53 -93 81 -240 115 -127 30 -165 48 -173
80 -15 62 25 97 110 97 64 0 100 -17 118 -57 11 -23 15 -24 101 -24 l90 0 -6
41 c-8 58 -51 108 -127 147 -59 30 -70 32 -164 32 -84 0 -111 -5 -160 -25z"/>
<path d="M4125 2137 c-64 -21 -100 -43 -133 -81 -85 -97 -59 -256 50 -312 17
-9 91 -31 166 -50 75 -19 144 -41 154 -51 27 -24 23 -75 -7 -103 -57 -54 -212
-28 -238 40 l-11 30 -94 0 -94 0 6 -31 c26 -132 136 -201 321 -201 79 0 112 4
157 21 162 62 221 239 115 349 -36 37 -103 64 -227 91 -49 11 -102 27 -118 35
-49 25 -56 73 -17 111 21 22 33 25 90 25 59 0 70 -3 94 -28 15 -15 30 -33 32
-40 3 -9 28 -12 95 -10 l91 3 -12 48 c-15 60 -60 108 -129 138 -63 28 -227 37
-291 16z"/>
<path d="M5635 2136 c-129 -41 -183 -115 -172 -238 6 -70 35 -117 89 -148 21
-12 99 -37 175 -56 75 -19 145 -41 155 -51 27 -24 23 -75 -8 -104 -22 -21 -35
-24 -92 -24 -79 1 -124 21 -142 64 -12 29 -13 30 -101 33 l-89 3 0 -36 c0 -25
11 -53 33 -85 113 -169 487 -157 579 18 33 63 32 161 -2 212 -33 49 -118 89
-240 114 -120 25 -145 35 -166 66 -37 57 13 106 106 106 61 0 102 -19 118 -54
11 -25 15 -26 103 -26 l91 0 -7 33 c-17 78 -70 136 -153 167 -62 23 -212 27
-277 6z"/>
</g>
</svg>
